# File exported by Houdini 19.0.531 (www.sidefx.com)
# 44 points
# 172 vertices
# 44 primitives
# Bounds: [-0.706685007, -0.437436998, -0.554561973] to [0.706685007, 0.882918, 0.168266997]
g 
v -0.706685007 -0.437436998 0.123481996
v 0.706685007 -0.437436998 0.123481996
v -0.636063993 0.464242995 0.0693489984
v 0.636063993 0.464242995 0.0693489984
v -0.597950995 0.440988004 -0.124978997
v 0.597950995 0.440988004 -0.124978997
v -0.685519993 -0.435869992 -0.149096996
v 0.685519993 -0.435869992 -0.149096996
v -0.61006403 0.77244699 -0.0188570004
v 0.61006403 0.77244699 -0.0188570004
v 0.576308012 0.70748502 -0.115010999
v -0.576308012 0.70748502 -0.115010999
v -0.580247998 0.882918 -0.309083998
v 0.580247998 0.882918 -0.309083998
v 0.582019985 0.79161799 -0.277236998
v -0.582019985 0.79161799 -0.277236998
v -0.572534978 0.591805995 -0.371749014
v 0.572534978 0.591805995 -0.371749014
v 0.575740993 0.581169009 -0.325058997
v -0.575740993 0.581169009 -0.325058997
v -0.54658699 0.556892991 -0.473975003
v 0.54658699 0.556892991 -0.473975003
v 0.550566018 0.536077023 -0.452535003
v -0.550566018 0.536077023 -0.452535003
v -0.536738992 0.438820004 -0.554561973
v 0.536738992 0.438820004 -0.554561973
v -0.706602991 -0.365395993 0.168266997
v 0.706602991 -0.365395993 0.168266997
v 0.701803982 -0.380712003 -0.198354006
v -0.701803982 -0.380712003 -0.198354006
v 0.559096992 0.545556009 -0.464688003
v 0.589827001 0.584686995 -0.348715991
v 0.599382997 0.833190024 -0.293870002
v 0.631291986 0.734879971 -0.0775759965
v 0.558620989 0.447872013 -0.0251020007
v 0.704029024 -0.373611003 -0.0283860005
v 0.695333004 -0.43659699 -0.0227279998
v -0.695333004 -0.43659699 -0.0227279998
v -0.704029024 -0.373611003 -0.0283860005
v -0.558620989 0.447872013 -0.0251020007
v -0.631291986 0.734879971 -0.0775759965
v -0.599382997 0.833190024 -0.293870002
v -0.589827001 0.584686995 -0.348715991
v -0.559096992 0.545556009 -0.464688003
vt 0.608649015 2.47664648e-05 0
vt 0.608648956 0.426813751 0
vt 0.356322855 0.405510962 0
vt 0.356322885 0.0213275626 0
vt 0.31354478 0.418082446 0
vt 0.31354481 0.779245436 0
vt 0.0644036382 0.810609102 0
vt 0.0644035935 0.38671875 0
vt 0.0420704708 0.391636491 0
vt 0.0420703962 0.805691361 0
vt 0.0039062947 0.808654904 0
vt 0.00390625 0.388673097 0
vt 0.834559083 0.878157496 0
vt 0.593383074 0.810312808 0
vt 0.605298221 0.760293961 0
vt 0.841201901 0.846853495 0
vt 0.541054308 0.842325211 0
vt 0.552969277 0.892344177 0
vt 0.311793447 0.960188687 0
vt 0.305150628 0.928884745 0
vt 0.259508252 0.397658914 0
vt 0.259508312 0.0291795749 0
vt 0.923233926 0.893136024 0
vt 0.92057991 0.870895624 0
vt 0.394083321 0.424618602 0
vt 0.394083321 0.77270925 0
vt 0.223118603 0.975167274 0
vt 0.225772604 0.952926934 0
vt 0.165724799 0.388654441 0
vt 0.165724844 0.0381840393 0
vt 0.983510315 0.848944247 0
vt 0.969442904 0.845290065 0
vt 0.449272275 0.422893643 0
vt 0.449272394 0.774434268 0
vt 0.162842169 0.930975437 0
vt 0.176909626 0.927321255 0
vt 0.0757949352 0.386325181 0
vt 0.0757949725 0.040513359 0
vt 0.935885847 0.78883934 0
vt 0.929251969 0.793752253 0
vt 0.514448225 0.424789906 0
vt 0.514448345 0.772537947 0
vt 0.210466579 0.870870531 0
vt 0.217100531 0.875783443 0
vt 0.0431717522 0.378488839 0
vt 0.0431719087 0.0483496189 0
vt 0.941119373 0.751665771 0
vt 0.935957074 0.752915919 0
vt 0.555283725 0.432392716 0
vt 0.555283606 0.764935136 0
vt 0.205233216 0.833696961 0
vt 0.210395515 0.834947109 0
vt 0 0.375514746 0
vt 3.59275951e-08 0.051323764 0
vt 0.946705222 0.750040948 0
vt 0.928500831 0.7109375 0
vt 0.59785229 0.436568439 0
vt 0.597852349 0.760759473 0
vt 0.217851773 0.79296875 0
vt 0.634266675 0 0
vt 0.634266734 0.426838517 0
vt 0.574418545 0.806735754 0
vt 0.58451879 0.769838989 0
vt 0.56183368 0.851870239 0
vt 0.571933985 0.888767004 0
vt 0.942770541 0.783261836 0
vt 0.999868095 0.852854192 0
vt 0.928165078 0.915236712 0
vt 0.82900852 0.914415598 0
vt 0.579846621 0.868252575 0
vt 0.5625 0.849388719 0
vt 0.678422928 0.00342831085 0
vt 0.678422928 0.423410267 0
vt 0.58385253 0.931420028 0
vt 0.566505849 0.950283885 0
vt 0.31734398 0.996446788 0
vt 0.218187347 0.997267962 0
vt 0.146484375 0.934885442 0
vt 0.203582004 0.865293026 0
vt 0.199647248 0.832072079 0
vn 0 0.118391998 0.99296701
vn 0 0.118391998 0.99296701
vn 0 0.118391998 0.99296701
vn 0 0.118391998 0.99296701
vn 0 0.0889429972 -0.996037006
vn 0 0.0889429972 -0.996037006
vn 0 0.0889429972 -0.996037006
vn 0 0.0889429972 -0.996037006
vn 0 -0.999984026 -0.00574700022
vn 0 -0.999984026 -0.00574700022
vn 0 -0.999984026 -0.00574700022
vn 0 -0.999984026 -0.00574700022
vn 0.981478989 0.142933995 0.127547994
vn 0.981478989 0.142933995 0.127547994
vn 0.981478989 0.142933995 0.127547994
vn 0.981478989 0.142933995 0.127547994
vn -0.981478989 0.142933995 0.127547994
vn -0.981478989 0.142933995 0.127547994
vn -0.981478989 0.142933995 0.127547994
vn -0.981478989 0.142933995 0.127547994
vn 0 0.275146991 0.961401999
vn 0 0.275146991 0.961401999
vn 0 0.275146991 0.961401999
vn 0 0.275146991 0.961401999
vn 0.991226017 -0.0981789976 -0.088496998
vn 0.991226017 -0.0981789976 -0.088496998
vn 0.991226017 -0.0981789976 -0.088496998
vn 0.991226017 -0.0981789976 -0.088496998
vn 0 0.0373779982 -0.999301016
vn 0 0.0373779982 -0.999301016
vn 0 0.0373779982 -0.999301016
vn 0 0.0373779982 -0.999301016
vn -0.991226017 -0.0981789976 -0.088496998
vn -0.991226017 -0.0981789976 -0.088496998
vn -0.991226017 -0.0981789976 -0.088496998
vn -0.991226017 -0.0981789976 -0.088496998
vn 0 0.934585989 0.355737001
vn 0 0.934585989 0.355737001
vn 0 0.934585989 0.355737001
vn 0 0.934585989 0.355737001
vn 0.697134972 -0.625775993 -0.349866986
vn 0.697134972 -0.625775993 -0.349866986
vn 0.697134972 -0.625775993 -0.349866986
vn 0.697134972 -0.625775993 -0.349866986
vn 0 -0.887718976 -0.460386008
vn 0 -0.887718976 -0.460386008
vn 0 -0.887718976 -0.460386008
vn 0 -0.887718976 -0.460386008
vn -0.697134972 -0.625775993 -0.349866986
vn -0.697134972 -0.625775993 -0.349866986
vn -0.697134972 -0.625775993 -0.349866986
vn -0.697134972 -0.625775993 -0.349866986
vn 0 0.210442007 -0.977605999
vn 0 0.210442007 -0.977605999
vn 0 0.210442007 -0.977605999
vn 0 0.210442007 -0.977605999
vn 0.851225019 -0.142367005 0.505122006
vn 0.851225019 -0.142367005 0.505122006
vn 0.851225019 -0.142367005 0.505122006
vn 0.851225019 -0.142367005 0.505122006
vn 0 -0.221590996 0.975139976
vn 0 -0.221590996 0.975139976
vn 0 -0.221590996 0.975139976
vn 0 -0.221590996 0.975139976
vn -0.851225019 -0.142367005 0.505122006
vn -0.851225019 -0.142367005 0.505122006
vn -0.851225019 -0.142367005 0.505122006
vn -0.851225019 -0.142367005 0.505122006
vn 0 0.946331978 -0.323195994
vn 0 0.946331978 -0.323195994
vn 0 0.946331978 -0.323195994
vn 0 0.946331978 -0.323195994
vn 0.630894005 -0.766485989 0.120297
vn 0.630894005 -0.766485989 0.120297
vn 0.630894005 -0.766485989 0.120297
vn 0.630894005 -0.766485989 0.120297
vn 0 -0.94275701 0.333481997
vn 0 -0.94275701 0.333481997
vn 0 -0.94275701 0.333481997
vn 0 -0.94275701 0.333481997
vn -0.630894005 -0.766487002 0.120297
vn -0.630894005 -0.766487002 0.120297
vn -0.630894005 -0.766487002 0.120297
vn -0.630894005 -0.766487002 0.120297
vn 0 0.563731015 -0.825958014
vn 0 0.563731015 -0.825958014
vn 0 0.563731015 -0.825958014
vn 0 0.563731015 -0.825958014
vn 0.738695025 0.336863995 -0.583826005
vn 0.738695025 0.336863995 -0.583826005
vn 0.738695025 0.336863995 -0.583826005
vn 0 -0.723824024 0.689984977
vn 0 -0.723824024 0.689984977
vn 0 -0.723824024 0.689984977
vn 0 -0.723824024 0.689984977
vn -0.864131987 -0.417560011 0.280925006
vn -0.864131987 -0.417560011 0.280925006
vn -0.864131987 -0.417560011 0.280925006
vn 0 -0.527953982 0.849273026
vn 0 -0.527953982 0.849273026
vn 0 -0.527953982 0.849273026
vn 0 -0.527953982 0.849273026
vn 0.974381983 -0.222188994 -0.0348009989
vn 0.974381983 -0.222188994 -0.0348009989
vn 0.974381983 -0.222188994 -0.0348009989
vn 0.974381983 -0.222188994 -0.0348009989
vn 0 -0.666074991 -0.745885015
vn 0 -0.666074991 -0.745885015
vn 0 -0.666074991 -0.745885015
vn 0 -0.666074991 -0.745885015
vn -0.974381983 -0.222189993 -0.0348000005
vn -0.974381983 -0.222189993 -0.0348000005
vn -0.974381983 -0.222189993 -0.0348000005
vn -0.974381983 -0.222189993 -0.0348000005
vn 0.748283982 0.544380009 -0.379105985
vn 0.748283982 0.544380009 -0.379105985
vn 0.748283982 0.544380009 -0.379105985
vn 0.748283982 0.544380009 -0.379105985
vn 0.793479025 0.105148003 -0.599444985
vn 0.793479025 0.105148003 -0.599444985
vn 0.793479025 0.105148003 -0.599444985
vn 0.793479025 0.105148003 -0.599444985
vn 0.916091025 0.397552997 0.0522289984
vn 0.916091025 0.397552997 0.0522289984
vn 0.916091025 0.397552997 0.0522289984
vn 0.916091025 0.397552997 0.0522289984
vn 0.944314003 -0.143976003 -0.295875996
vn 0.944314003 -0.143976003 -0.295875996
vn 0.944314003 -0.143976003 -0.295875996
vn 0.944314003 -0.143976003 -0.295875996
vn 0.956062973 0.109284997 -0.272029012
vn 0.956062973 0.109284997 -0.272029012
vn 0.956062973 0.109284997 -0.272029012
vn 0.956062973 0.109284997 -0.272029012
vn 0.997856975 -0.0522349998 -0.0394099988
vn 0.997856975 -0.0522349998 -0.0394099988
vn 0.997856975 -0.0522349998 -0.0394099988
vn 0.997856975 -0.0522349998 -0.0394099988
vn 0 -0.999983013 -0.00574700022
vn 0 -0.999983013 -0.00574700022
vn 0 -0.999984026 -0.00574700022
vn 0 -0.999984026 -0.00574700022
vn -0.997856975 -0.0522349998 -0.0394099988
vn -0.997856975 -0.0522349998 -0.0394099988
vn -0.997856975 -0.0522349998 -0.0394099988
vn -0.997856975 -0.0522349998 -0.0394099988
vn -0.956062973 0.109284997 -0.272029996
vn -0.956062973 0.109284997 -0.272029996
vn -0.956062973 0.109284997 -0.272029996
vn -0.956062973 0.109284997 -0.272029996
vn -0.944314003 -0.143976003 -0.295875996
vn -0.944314003 -0.143976003 -0.295875996
vn -0.944314003 -0.143976003 -0.295875996
vn -0.944314003 -0.143976003 -0.295875996
vn -0.916091025 0.39755401 0.0522289984
vn -0.916091025 0.39755401 0.0522289984
vn -0.916091025 0.39755401 0.0522289984
vn -0.916091025 0.39755401 0.0522289984
vn -0.793479025 0.105148003 -0.599444985
vn -0.793479025 0.105148003 -0.599444985
vn -0.793479025 0.105148003 -0.599444985
vn -0.793479025 0.105148003 -0.599444985
vn -0.748283982 0.544380009 -0.379105985
vn -0.748283982 0.544380009 -0.379105985
vn -0.748283982 0.544380009 -0.379105985
vn -0.748283982 0.544380009 -0.379105985
vn 0.864131987 -0.417560011 0.280925006
vn 0.864131987 -0.417560011 0.280925006
vn 0.864131987 -0.417560011 0.280925006
vn -0.738695025 0.336863995 -0.583826005
vn -0.738695025 0.336863995 -0.583826005
vn -0.738695025 0.336863995 -0.583826005
g pCube1
usemtl /mat/initialShadingGroup
f 27/1/1 28/2/2 4/3/3 3/4/4
f 5/5/5 6/6/6 29/7/7 30/8/8
f 7/9/9 8/10/10 37/11/11 38/12/12
f 35/13/13 36/14/14 29/15/15 6/16/16
f 30/17/17 39/18/18 40/19/19 5/20/20
f 3/4/21 4/3/22 10/21/23 9/22/24
f 34/23/25 35/13/26 6/16/27 11/24/28
f 6/6/29 5/5/30 12/25/31 11/26/32
f 5/20/33 40/19/34 41/27/35 12/28/36
f 9/22/37 10/21/38 14/29/39 13/30/40
f 33/31/41 34/23/42 11/24/43 15/32/44
f 11/26/45 12/25/46 16/33/47 15/34/48
f 12/28/49 41/27/50 42/35/51 16/36/52
f 13/30/53 14/29/54 18/37/55 17/38/56
f 32/39/57 33/31/58 15/32/59 19/40/60
f 15/34/61 16/33/62 20/41/63 19/42/64
f 16/36/65 42/35/66 43/43/67 20/44/68
f 17/38/69 18/37/70 22/45/71 21/46/72
f 31/47/73 32/39/74 19/40/75 23/48/76
f 19/42/77 20/41/78 24/49/79 23/50/80
f 20/44/81 43/43/82 44/51/83 24/52/84
f 21/46/85 22/45/86 26/53/87 25/54/88
f 22/55/89 31/47/90 26/56/91
f 23/50/92 24/49/93 25/57/94 26/58/95
f 24/52/96 44/51/97 25/59/98
f 1/60/99 2/61/100 28/2/101 27/1/102
f 36/14/103 37/62/104 8/63/105 29/15/106
f 30/8/107 29/7/108 8/10/109 7/9/110
f 7/64/111 38/65/112 39/18/113 30/17/114
f 18/66/115 32/39/116 31/47/117 22/55/118
f 14/67/119 33/31/120 32/39/121 18/66/122
f 10/68/123 34/23/124 33/31/125 14/67/126
f 4/69/127 35/13/128 34/23/129 10/68/130
f 28/70/131 36/14/132 35/13/133 4/69/134
f 2/71/135 37/62/136 36/14/137 28/70/138
f 38/72/139 37/73/140 2/61/141 1/60/142
f 39/18/143 38/65/144 1/74/145 27/75/146
f 40/19/147 39/18/148 27/75/149 3/76/150
f 41/27/151 40/19/152 3/76/153 9/77/154
f 42/35/155 41/27/156 9/77/157 13/78/158
f 43/43/159 42/35/160 13/78/161 17/79/162
f 44/51/163 43/43/164 17/79/165 21/80/166
f 26/56/167 31/47/168 23/48/169
f 25/59/170 44/51/171 21/80/172
