# File exported by Houdini 19.0.498 (www.sidefx.com)
# 40 points
# 96 vertices
# 24 primitives
# Bounds: [-0.189572811, -0.185368985, 2.97308755] to [0.213441849, 0.244856179, 3.58075643]
g 
v -0.146524906 0.0146486219 2.98745942
v 0.113631129 -0.0289616883 2.97308779
v -0.189572811 0.158015013 3.391083
v 0.213441849 0.0088738082 3.39601541
v -0.108870029 0.114780523 2.98745942
v 0.00430047512 0.0146486219 2.98745942
v 0.0430715084 0.0790405944 2.98745942
v 0.136597991 0.0881659463 3.58075643
v -0.00331544876 -0.0604107603 3.36802506
v -0.0375818014 0.132175997 3.58075643
v -0.187586784 0.0150300208 3.12000108
v 0.19415617 0.0146486107 3.12281656
v -0.142117739 -0.00527784694 3.1696682
v 0.00430047512 0.0146486107 3.11333036
v 0.0681917667 0.0635411665 3.24311113
v 0.125964284 0.0150300162 3.26417208
v -0.0350884199 0.132176012 3.40777612
v -0.01706779 0.0150300153 3.2534523
v 0.136597991 -0.0294604357 3.45545173
v -0.187586784 0.0150300143 3.33977628
v 0.0577324629 -0.105712831 2.98745918
v 0.0367808342 0.15723975 2.97308755
v -0.0708653927 -0.182326645 3.25172734
v -0.0241869688 0.244856179 3.39601517
v -0.0485501289 -0.0935337245 2.98745918
v 0.0210613012 0.0405864939 2.98745918
v -0.050825119 0.0625380948 2.98745918
v -0.0824161768 0.151039422 3.58075595
v 0.0957199335 0.051448904 3.36265111
v -0.0827562809 -0.0286140516 3.58075595
v 0.134771109 -0.185368985 3.07546782
v -0.0250995159 0.224745169 3.12281632
v 0.0759893656 -0.0470736958 3.16966796
v 0.0210614204 0.0405865014 3.11333013
v -0.0418983698 0.0906730816 3.2431109
v -0.00888943672 0.158506855 3.26417184
v -0.0833625793 -0.0261954218 3.40777588
v 0.0258868933 0.0197667442 3.25345182
v 0.0316803455 0.179638684 3.45545149
v 0.067346096 -0.145635426 3.26674867
vt 0.929902256 0.350084245 0
vt 0.922184646 0.211259618 0
vt 0.98567307 0.306947261 0
vt 0.929902256 0.44102636 0
vt 0.694619358 0.266130716 0
vt 0.805297792 0.315482825 0
vt 0.803488135 0.44102636 0
vt 0.693177998 0.303367496 0
vt 0.112003267 0.451747835 0
vt 0 0.366727024 0
vt 0.0831532255 0.311974555 0
vt 0.237546816 0.451747835 0
vt 0.818376601 0.203479543 0
vt 0.828357577 0.286632776 0
vt 0.678851068 0.458542675 0
vt 0.678851068 0.505276322 0
vt 0.493307263 0.494027317 0
vt 0.587498009 0.458542675 0
vt 0.751749456 0.0104304692 0
vt 0.833884954 0.0104304692 0
vt 0.833884954 0.101783551 0
vt 0.72761935 0.142671749 0
vt 0.58759439 0.0144619914 0
vt 0.58759439 0.0871345103 0
vt 0.455353081 0 0
vt 0.491399884 0.0147387981 0
vt 0.862023771 0.0104304692 0
vt 0.913233638 0 0
vt 0.971676111 0.108668335 0
vt 0.880255222 0.195974261 0
vt 0.694619358 0.106624946 0
vt 0.478980452 0.40291661 0
vt 0.449536204 0.541741252 0
vt 0.438433766 0.446053594 0
vt 0.396172881 0.311974674 0
vt 0.227896392 0.02883734 0
vt 0.125543371 0.115523055 0
vt 0 0.113767698 0
vt 0.23879838 0.00220803288 0
vt 0.251873672 0.423977941 0
vt 0.331163436 0.311974496 0
vt 0.381846011 0.391227841 0
vt 0.252313703 0.549521327 0
vt 0.237546816 0.148880914 0
vt 0.0909419507 0.264910817 0
vt 0 0.244154409 0
vt 0.158293486 0.171874821 0
vt 0.0521728545 0.6516186 0
vt 0 0.6516186 0
vt 0.00647874782 0.466074795 0
vt 0.0521729402 0.560265481 0
vt 0.430595726 0.0666510761 0
vt 0.430595726 0.163991228 0
vt 0.339242637 0.163991228 0
vt 0.298354447 0.10037028 0
vt 0.570443869 0.444215775 0
vt 0.493307352 0.444215775 0
vt 0.5836941 0.311974496 0
vt 0.626356006 0.380341917 0
vt 0.430595726 0.179922983 0
vt 0.441026181 0.24865441 0
vt 0.332357854 0.297647685 0
vt 0.24505192 0.200342461 0
vt 0.366721869 0 0
vt 0.229766563 0.249574021 0
vn 0.542884827 -0.822072566 0.171676755
vn 0.542884827 -0.822072566 0.171676755
vn 0.542884827 -0.822072566 0.171676755
vn 0.542884827 -0.822072566 0.171676755
vn -0.195285663 -0.828751922 0.524436593
vn -0.195285663 -0.828751922 0.524436593
vn -0.195285663 -0.828751922 0.524436593
vn -0.195285663 -0.828751922 0.524436593
vn -0.986782908 -0.162001804 -0.00386499125
vn -0.986782908 -0.162001804 -0.00386499125
vn -0.986782908 -0.162001804 -0.00386499125
vn -0.986782908 -0.162001804 -0.00386499125
vn 0.113106959 -0.979651511 0.165800124
vn 0.113106959 -0.979651511 0.165800124
vn 0.113106959 -0.979651511 0.165800124
vn 0.113106959 -0.979651511 0.165800124
vn 0.780909061 -0.619930029 -0.076601468
vn 0.780909061 -0.619930029 -0.076601468
vn 0.780909061 -0.619930029 -0.076601468
vn 0.780909061 -0.619930029 -0.076601468
vn -0.346828401 -0.860647082 -0.372822732
vn -0.346828401 -0.860647082 -0.372822732
vn -0.346828401 -0.860647082 -0.372822732
vn -0.346828401 -0.860647082 -0.372822732
vn 0.717949092 -0.68988049 -0.09281113
vn 0.717949092 -0.68988049 -0.09281113
vn 0.717949092 -0.68988049 -0.09281113
vn 0.717949092 -0.68988049 -0.09281113
vn -0.527013123 -0.827251852 0.194709077
vn -0.527013123 -0.827251852 0.194709077
vn -0.527013123 -0.827251852 0.194709077
vn -0.527013123 -0.827251852 0.194709077
vn 0.448237956 -0.848045349 -0.282669187
vn 0.448237956 -0.848045349 -0.282669187
vn 0.448237956 -0.848045349 -0.282669187
vn 0.448237956 -0.848045349 -0.282669187
vn -0.0895582363 -0.929084301 0.358861595
vn -0.0895582363 -0.929084301 0.358861595
vn -0.0895582363 -0.929084301 0.358861595
vn -0.0895582363 -0.929084301 0.358861595
vn 0.332659423 -0.921818912 0.198966488
vn 0.332659423 -0.921818912 0.198966488
vn 0.332659423 -0.921818912 0.198966488
vn 0.332659423 -0.921818912 0.198966488
vn -0.584407926 -0.785078406 -0.205229446
vn -0.584407926 -0.785078406 -0.205229446
vn -0.584407926 -0.785078406 -0.205229446
vn -0.584407926 -0.785078406 -0.205229446
vn 0.665409565 0.726468861 0.171677053
vn 0.665409565 0.726468861 0.171677053
vn 0.665409565 0.726468861 0.171677053
vn 0.665409565 0.726468861 0.171677053
vn 0.723232448 -0.458383024 0.516546011
vn 0.723232448 -0.458383024 0.516546011
vn 0.723232448 -0.458383024 0.516546011
vn 0.723232448 -0.458383024 0.516546011
vn 0.396956265 -0.917829096 -0.00390680134
vn 0.396956265 -0.917829096 -0.00390680134
vn 0.396956265 -0.917829096 -0.00390680134
vn 0.396956265 -0.917829096 -0.00390680134
vn 0.925256312 0.339023501 0.170188263
vn 0.925256312 0.339023501 0.170188263
vn 0.925256312 0.339023501 0.170188263
vn 0.925256312 0.339023501 0.170188263
vn 0.411460757 0.908202767 -0.0766018331
vn 0.411460757 0.908202767 -0.0766018331
vn 0.411460757 0.908202767 -0.0766018331
vn 0.411460757 0.908202767 -0.0766018331
vn 0.92424649 -0.150341988 -0.350949556
vn 0.92424649 -0.150341988 -0.350949556
vn 0.92424649 -0.150341988 -0.350949556
vn 0.92424649 -0.150341988 -0.350949556
vn 0.539850593 0.784013152 -0.30640623
vn 0.539850593 0.784013152 -0.30640623
vn 0.539850593 0.784013152 -0.30640623
vn 0.539850593 0.784013152 -0.30640623
vn 0.930563807 -0.31006366 0.194708943
vn 0.930563807 -0.31006366 0.194708943
vn 0.930563807 -0.31006366 0.194708943
vn 0.930563807 -0.31006366 0.194708943
vn 0.713612318 0.640979707 -0.282670021
vn 0.713612318 0.640979707 -0.282670021
vn 0.713612318 0.640979707 -0.282670021
vn 0.713612318 0.640979707 -0.282670021
vn 0.904136539 0.214744359 0.369353622
vn 0.904136539 0.214744359 0.369353622
vn 0.904136539 0.214744359 0.369353622
vn 0.904136539 0.214744359 0.369353622
vn 0.854553878 0.324486822 0.405519605
vn 0.854553878 0.324486822 0.405519605
vn 0.854553878 0.324486822 0.405519605
vn 0.854553878 0.324486822 0.405519605
vn 0.90361011 -0.375991434 -0.20522958
vn 0.90361011 -0.375991434 -0.20522958
vn 0.90361011 -0.375991434 -0.20522958
vn 0.90361011 -0.375991434 -0.20522958
g 
f 19/1/1 16/2/2 4/3/3 8/4/4
f 20/5/5 17/6/6 10/7/7 3/8/8
f 17/9/9 18/10/10 9/11/11 10/12/12
f 18/13/13 19/1/14 8/4/15 9/14/16
f 6/15/17 7/16/18 15/17/19 14/18/20
f 5/19/21 6/20/22 14/21/23 13/22/24
f 1/23/25 5/24/26 13/25/27 11/26/28
f 7/27/29 2/28/30 12/29/31 15/30/32
f 14/21/33 15/30/34 19/1/35 18/13/36
f 13/22/37 14/21/38 18/13/39 17/6/40
f 11/31/41 13/22/42 17/6/43 20/5/44
f 15/30/45 12/29/46 16/2/47 19/1/48
f 39/32/49 36/33/50 24/34/51 28/35/52
f 40/36/53 37/37/54 30/38/55 23/39/56
f 37/40/57 38/41/58 29/42/59 30/43/60
f 38/44/61 39/45/62 28/46/63 29/47/64
f 26/48/65 27/49/66 35/50/67 34/51/68
f 25/52/69 26/53/70 34/54/71 33/55/72
f 21/56/73 25/57/74 33/58/75 31/59/76
f 27/60/77 22/61/78 32/62/79 35/63/80
f 34/54/81 35/63/82 39/45/83 38/44/84
f 33/55/85 34/54/86 38/44/87 37/37/88
f 31/64/89 33/55/90 37/37/91 40/36/92
f 35/63/93 32/62/94 36/65/95 39/45/96
