# Blender v3.0.0 OBJ File: ''
# www.blender.org
mtllib needforwheel_jackbottle.mtl
o needforwheel_jackbottle
v -0.102847 0.729489 -0.213707
v -0.224430 0.722629 0.000000
v -0.172412 0.844205 0.000000
v -0.056773 0.844205 -0.160730
v -0.490959 0.685861 0.000000
v -0.490959 0.685861 0.202306
v -0.102847 0.729489 0.213707
v -0.612395 -0.140682 0.189704
v -0.685861 0.490959 0.212463
v -0.685861 0.490959 0.000000
v -0.612395 -0.140682 -0.000000
v 0.580140 0.596680 -0.291487
v 0.490959 0.685861 -0.202306
v 0.685861 0.490959 -0.212463
v 0.606837 0.569983 -0.291487
v 0.102575 0.729489 -0.213707
v 0.056500 0.844205 -0.160730
v 0.091583 -0.140682 -0.260263
v 0.101390 0.596743 -0.288121
v -0.102847 -0.685861 0.000000
v 0.102575 -0.685861 0.000000
v 0.102575 -0.685861 0.291487
v -0.083366 -0.685861 0.291487
v -0.102847 -0.685861 0.291487
v -0.490959 0.685861 -0.202306
v 0.612387 -0.140682 -0.000000
v 0.685861 0.490959 0.000000
v 0.685861 0.490959 0.212463
v 0.612387 -0.140682 0.189704
v -0.685861 -0.582337 0.212463
v -0.612395 -0.302056 0.189704
v -0.612395 -0.302056 -0.000000
v -0.685861 -0.582337 0.000000
v 0.490959 0.685861 0.000000
v 0.490959 0.685861 0.202306
v 0.102575 0.729489 0.213707
v 0.056500 0.844205 0.160730
v -0.056772 0.844205 0.160730
v -0.032909 1.414929 0.093007
v 0.032637 1.414929 0.093007
v 0.031582 1.524143 0.090012
v -0.031854 1.524143 0.090012
v -0.104326 1.414929 0.000000
v -0.102847 1.524143 0.000000
v -0.091835 -0.302056 0.260263
v -0.091835 -0.140682 0.260263
v -0.541836 -0.140682 0.260263
v -0.541836 -0.302056 0.260263
v -0.102847 -0.685861 -0.291487
v 0.102575 -0.685861 -0.291487
v 0.224158 0.722629 0.000000
v 0.541828 -0.302056 0.260263
v 0.541828 -0.140682 0.260263
v 0.091583 -0.140682 0.260263
v 0.091583 -0.302056 0.260263
v 0.612387 -0.140682 -0.189704
v -0.685861 0.490959 -0.212463
v -0.612395 -0.140682 -0.189704
v 0.102575 1.524143 0.000000
v 0.031582 1.524143 -0.090012
v -0.031854 1.524143 -0.090012
v 0.104054 1.414929 0.000000
v 0.032637 1.414929 -0.093007
v -0.032909 1.414929 -0.093007
v 0.140618 1.168921 0.000000
v 0.046137 1.168921 -0.131321
v 0.052283 1.328035 -0.148763
v 0.159313 1.328035 0.000000
v -0.046410 1.168921 -0.131321
v -0.140891 1.168921 0.000000
v -0.159585 1.328035 0.000000
v -0.052556 1.328035 -0.148763
v 0.046137 1.168921 0.131321
v 0.052283 1.328035 0.148763
v -0.046410 1.168921 0.131321
v -0.052556 1.328035 0.148763
v 0.046829 1.006948 0.133283
v -0.047101 1.006948 0.133283
v -0.142994 1.006948 0.000000
v 0.172140 0.844205 0.000000
v 0.142721 1.006948 0.000000
v -0.047101 1.006948 -0.133283
v 0.046829 1.006948 -0.133283
v -0.091835 -0.140682 -0.260263
v -0.101660 0.596743 -0.288121
v -0.541836 -0.140682 -0.260263
v -0.606837 0.569983 -0.291487
v -0.580140 0.596680 -0.291487
v 0.101390 0.596743 0.288121
v -0.101660 0.596743 0.288121
v -0.580140 0.596680 0.291487
v 0.606837 0.569983 0.291487
v 0.580140 0.596680 0.291487
v 0.019794 1.429014 -0.056561
v 0.062133 1.429014 0.000000
v -0.062405 1.429014 0.000000
v -0.020067 1.429014 -0.056561
v 0.019794 1.429014 0.056561
v -0.020067 1.429014 0.056561
v 0.019745 1.445235 -0.056421
v 0.062499 1.445235 0.000000
v -0.062771 1.445235 0.000000
v -0.020017 1.445235 -0.056421
v 0.019745 1.445235 0.056421
v -0.020017 1.445235 0.056421
v -0.582337 -0.685861 0.000000
v -0.582337 -0.685861 0.291487
v 0.582337 -0.685861 -0.291487
v 0.582337 -0.685861 0.000000
v -0.541836 -0.302056 -0.260263
v -0.091835 -0.302056 -0.260263
v 0.582337 -0.685861 0.291487
v 0.091583 -0.302056 -0.260263
v -0.612395 -0.302056 -0.189704
v -0.582337 -0.685861 -0.291487
v -0.606837 -0.661361 0.291487
v 0.685861 -0.582337 -0.212463
v 0.612387 -0.302056 -0.189704
v 0.612387 -0.302056 -0.000000
v 0.685861 -0.582337 0.000000
v -0.606837 -0.661361 -0.291487
v 0.606837 -0.661361 0.291487
v 0.606837 -0.661361 -0.291487
v 0.612387 -0.302056 0.189704
v 0.685861 -0.582337 0.212463
v -0.685861 -0.582337 -0.212463
v -0.606837 0.569983 0.291487
v 0.541828 -0.302056 -0.260263
v 0.541828 -0.140682 -0.260263
vt 0.634410 0.706812
vt 0.680130 0.649021
vt 0.701309 0.672198
vt 0.678434 0.723962
vt 0.532937 0.348495
vt 0.515108 0.417349
vt 0.463307 0.403843
vt 0.488509 0.292458
vt 0.231667 0.434259
vt 0.400516 0.443526
vt 0.407027 0.497068
vt 0.229630 0.487527
vt 0.571928 0.900370
vt 0.608678 0.891169
vt 0.545871 0.930837
vt 0.564940 0.905834
vt 0.633921 0.779708
vt 0.677931 0.763176
vt 0.378745 0.770473
vt 0.585331 0.773024
vt 0.015503 0.289650
vt 0.014648 0.233113
vt 0.089615 0.234418
vt 0.090270 0.281286
vt 0.090350 0.286135
vt 0.604229 0.592370
vt 0.658476 0.574683
vt 0.223724 0.029040
vt 0.400197 0.014648
vt 0.395506 0.068125
vt 0.227058 0.082320
vt 0.101538 0.435949
vt 0.183445 0.433066
vt 0.185965 0.487070
vt 0.106613 0.494167
vt 0.481171 0.045486
vt 0.458766 0.105054
vt 0.488982 0.219565
vt 0.533008 0.236709
vt 0.532513 0.275921
vt 0.746561 0.273318
vt 0.747029 0.246191
vt 0.793380 0.247046
vt 0.792905 0.274065
vt 0.730563 0.320484
vt 0.733759 0.286730
vt 0.765323 0.290189
vt 0.762147 0.323282
vt 0.189714 0.283543
vt 0.233337 0.283297
vt 0.232000 0.405783
vt 0.186123 0.403922
vt 0.554400 0.326820
vt 0.235041 0.721507
vt 0.235789 0.773276
vt 0.160915 0.776659
vt 0.160156 0.720237
vt 0.513014 0.087363
vt 0.534696 0.161773
vt 0.181762 0.113803
vt 0.227932 0.110505
vt 0.232636 0.233109
vt 0.189017 0.234122
vt 0.377015 0.921508
vt 0.552364 0.984384
vt 0.374959 0.974779
vt 0.369211 0.516291
vt 0.545686 0.501953
vt 0.540980 0.555428
vt 0.372529 0.569572
vt 0.832470 0.217346
vt 0.830878 0.305148
vt 0.938353 0.761355
vt 0.938831 0.734332
vt 0.977930 0.704632
vt 0.976329 0.792446
vt 0.735116 0.232421
vt 0.733371 0.198426
vt 0.765207 0.197010
vt 0.766897 0.230348
vt 0.892003 0.760603
vt 0.892474 0.733473
vt 0.880561 0.719701
vt 0.878819 0.685702
vt 0.910660 0.684290
vt 0.912346 0.717631
vt 0.875996 0.807773
vt 0.879197 0.774017
vt 0.910764 0.777480
vt 0.907583 0.810577
vt 0.778741 0.803171
vt 0.780219 0.758437
vt 0.826463 0.760476
vt 0.822115 0.810673
vt 0.780737 0.731271
vt 0.780979 0.686249
vt 0.824846 0.680493
vt 0.827085 0.731047
vt 0.635304 0.244003
vt 0.635540 0.198986
vt 0.679402 0.193224
vt 0.681647 0.243772
vt 0.633319 0.315895
vt 0.634790 0.271166
vt 0.681029 0.273199
vt 0.676689 0.323391
vt 0.586159 0.242558
vt 0.585708 0.271057
vt 0.591552 0.315190
vt 0.555876 0.184946
vt 0.593432 0.198063
vt 0.731588 0.729820
vt 0.731132 0.758321
vt 0.738867 0.685322
vt 0.699811 0.814082
vt 0.736970 0.802458
vt 0.378063 0.720291
vt 0.584601 0.712315
vt 0.373396 0.597756
vt 0.561001 0.580221
vt 0.568178 0.585484
vt 0.678345 0.835754
vt 0.660485 0.904684
vt 0.439176 0.225077
vt 0.439920 0.285784
vt 0.426562 0.413051
vt 0.415535 0.092911
vt 0.422713 0.098173
vt 0.861109 0.778688
vt 0.859141 0.798458
vt 0.861501 0.694310
vt 0.862613 0.714245
vt 0.867412 0.740328
vt 0.867157 0.752861
vt 0.716055 0.207036
vt 0.717169 0.226968
vt 0.715674 0.291403
vt 0.713709 0.311172
vt 0.721971 0.253048
vt 0.721717 0.265579
vt 0.865758 0.779019
vt 0.863759 0.799136
vt 0.866163 0.693831
vt 0.867298 0.714111
vt 0.873141 0.739313
vt 0.872871 0.754092
vt 0.720716 0.206556
vt 0.721854 0.226834
vt 0.720322 0.291734
vt 0.718326 0.311848
vt 0.727699 0.252032
vt 0.727430 0.266809
vt 0.027067 0.414103
vt 0.092290 0.401084
vt 0.237638 0.888279
vt 0.172380 0.901242
vt 0.327226 0.601042
vt 0.334450 0.721298
vt 0.022763 0.108643
vt 0.088323 0.119331
vt 0.335120 0.770695
vt 0.325514 0.517215
vt 0.324589 0.571576
vt 0.233790 0.606546
vt 0.168252 0.595863
vt 0.096378 0.407054
vt 0.246866 0.923152
vt 0.328788 0.920298
vt 0.331290 0.974309
vt 0.251923 0.981381
vt 0.237532 0.600442
vt 0.092064 0.113225
vt 0.241724 0.894251
vt 0.099079 0.025067
vt 0.180030 0.029975
vt 0.179118 0.084337
vt 0.095610 0.084492
vt 0.244564 0.512291
vt 0.241083 0.571716
vt 0.419576 0.418517
vt 0.626648 0.532811
vt 0.331479 0.891151
vt 0.377359 0.893030
vt 0.633208 0.950643
vt 0.487854 0.463304
vt 0.186079 0.943133
vt 0.034887 0.066798
vt 0.180372 0.554028
vt 0.040791 0.455966
vn -0.7678 0.4260 -0.4786
vn -0.1222 0.9923 0.0194
vn -0.9933 -0.1155 0.0000
vn 0.7071 0.7071 0.0000
vn 0.0000 0.4193 -0.9079
vn -0.0058 -0.0394 -0.9992
vn -0.0035 -0.0377 -0.9993
vn -0.0067 -0.0380 -0.9993
vn 0.0000 -1.0000 0.0000
vn -0.1222 0.9923 -0.0194
vn 0.9933 -0.1155 0.0000
vn -0.9673 0.2535 0.0000
vn 0.0000 0.4193 0.9079
vn 0.0000 0.0274 0.9996
vn -0.7891 0.0176 0.6140
vn 0.0000 0.0000 1.0000
vn -0.7678 0.4260 0.4786
vn 0.1221 0.9923 0.0193
vn 0.0000 1.0000 0.0000
vn 0.7891 0.0176 0.6140
vn 0.0000 0.0274 -0.9996
vn -0.7891 0.0176 -0.6140
vn 0.7891 0.0176 -0.6140
vn 0.8081 -0.0949 -0.5814
vn -0.8081 -0.0949 -0.5814
vn 0.0000 -0.1090 -0.9940
vn 0.8081 -0.0949 0.5814
vn -0.8081 -0.0949 0.5814
vn 0.0000 -0.1090 0.9940
vn 0.0000 0.1663 0.9861
vn -0.8031 0.1452 0.5778
vn 0.8031 0.1452 0.5778
vn 0.0000 0.1663 -0.9861
vn -0.8031 0.1452 -0.5778
vn 0.8031 0.1452 -0.5778
vn 0.0058 -0.0394 -0.9992
vn 0.0035 -0.0377 -0.9993
vn 0.0024 -0.0422 -0.9991
vn 0.0067 -0.0380 -0.9993
vn 0.1221 0.9923 -0.0193
vn -0.0058 -0.0394 0.9992
vn -0.0035 -0.0377 0.9993
vn 0.0035 -0.0377 0.9993
vn 0.0058 -0.0394 0.9992
vn 0.0067 -0.0380 0.9993
vn -0.0024 -0.0422 0.9991
vn -0.0067 -0.0380 0.9993
vn 0.0000 0.0121 0.9999
vn -0.8117 0.0105 0.5840
vn 0.8117 0.0105 0.5840
vn 0.0000 0.0121 -0.9999
vn -0.8117 0.0105 -0.5840
vn 0.8117 0.0105 -0.5840
vn 0.6352 0.6188 -0.4621
vn -0.6352 0.6188 -0.4621
vn 0.0000 0.6743 -0.7385
vn 0.6352 0.6188 0.4621
vn -0.6352 0.6188 0.4621
vn 0.0000 0.6743 0.7385
vn 0.7988 -0.0052 -0.6016
vn -0.7988 -0.0052 -0.6016
vn 0.0000 0.0086 -1.0000
vn 0.7988 -0.0052 0.6016
vn -0.7988 -0.0052 0.6016
vn 0.0000 0.0086 1.0000
vn -0.5398 -0.7338 0.4124
vn 0.5398 -0.7338 0.4124
vn 0.0000 -0.7701 0.6379
vn -0.5398 -0.7338 -0.4124
vn 0.5398 -0.7338 -0.4124
vn 0.0000 -0.7701 -0.6379
vn -0.0019 0.0787 0.9969
vn -0.0021 0.0852 0.9964
vn 0.0021 0.0852 0.9964
vn 0.0019 0.0787 0.9969
vn 0.0000 0.0811 0.9967
vn 0.0000 0.0000 -1.0000
vn 0.0019 0.0787 -0.9969
vn 0.0021 0.0852 -0.9964
vn -0.0021 0.0852 -0.9964
vn -0.0019 0.0787 -0.9969
vn -1.0000 -0.0000 0.0000
vn 0.0005 0.0853 0.9964
vn 0.0037 0.0764 0.9971
vn 0.9673 0.2536 0.0000
vn 0.0037 0.0764 -0.9971
vn 0.0005 0.0853 -0.9964
vn -0.0037 0.0764 0.9971
vn -0.0004 0.0854 0.9963
vn -0.0005 0.0853 -0.9964
vn -0.0037 0.0764 -0.9971
vn 1.0000 0.0000 0.0000
vn -0.7071 0.7071 -0.0000
vn 0.7071 -0.7071 -0.0000
vn 0.7678 0.4260 -0.4786
vn -0.7071 -0.7071 -0.0000
vn 0.7071 0.0000 -0.7071
vn 0.7071 -0.0000 0.7071
vn -0.7071 0.0000 -0.7071
vn -0.7071 -0.0000 0.7071
vn 0.6769 -0.0992 -0.7293
vn 0.6769 -0.0992 0.7293
vn -0.6769 -0.0992 -0.7293
vn -0.6769 -0.0992 0.7293
vn 0.6376 0.2008 -0.7437
vn 0.6376 0.2008 0.7437
vn -0.6376 0.2008 -0.7437
vn -0.6376 0.2008 0.7437
vn 0.0000 0.4890 -0.8723
vn 0.0000 0.4890 0.8723
vn 0.0377 0.6026 -0.7972
vn 0.0377 0.6026 0.7972
vn -0.0378 0.6026 -0.7971
vn -0.0378 0.6026 0.7971
vn 0.7678 0.4260 0.4786
vn -0.0024 -0.0422 -0.9991
vn 0.0024 -0.0422 0.9991
vn 0.0000 0.0866 0.9962
vn 0.0000 0.0866 -0.9962
usemtl Material.001
s 1
f 1/1/1 2/2/1 3/3/1 4/4/1
f 2/5/2 5/6/2 6/7/2 7/8/2
f 8/9/3 9/10/3 10/11/3 11/12/3
f 12/13/4 13/14/4 14/15/4 15/16/4
f 16/17/5 1/1/5 4/4/5 17/18/5
f 18/19/6 19/20/7 12/13/8
f 20/21/9 21/22/9 22/23/9 23/24/9 24/25/9
f 1/1/10 25/26/10 5/27/10 2/2/10
f 26/28/11 27/29/11 28/30/11 29/31/11
f 30/32/12 31/33/12 32/34/12 33/35/12
f 34/36/4 35/37/4 28/30/4 27/29/4
f 7/8/13 36/38/13 37/39/13 38/40/13
f 39/41/14 40/42/14 41/43/14 42/44/14
f 43/45/15 39/46/15 42/47/15 44/48/15
f 45/49/16 46/50/16 47/51/16 48/52/16
f 2/5/17 7/8/17 38/40/17 3/53/17
f 49/54/9 50/55/9 21/56/9 20/57/9
f 34/58/18 51/59/18 36/38/18 35/37/18
f 52/60/16 53/61/16 54/62/16 55/63/16
f 56/64/11 14/15/11 27/65/11 26/66/11
f 11/67/3 10/68/3 57/69/3 58/70/3
f 59/71/19 44/72/19 42/44/19 41/43/19
f 60/73/19 61/74/19 44/75/19 59/76/19
f 40/77/20 62/78/20 59/79/20 41/80/20
f 63/81/21 64/82/21 61/74/21 60/73/21
f 64/83/22 43/84/22 44/85/22 61/86/22
f 62/87/23 63/88/23 60/89/23 59/90/23
f 65/91/24 66/92/24 67/93/24 68/94/24
f 69/95/25 70/96/25 71/97/25 72/98/25
f 66/92/26 69/95/26 72/98/26 67/93/26
f 73/99/27 65/100/27 68/101/27 74/102/27
f 70/103/28 75/104/28 76/105/28 71/106/28
f 75/104/29 73/99/29 74/102/29 76/105/29
f 38/40/30 37/39/30 77/107/30 78/108/30
f 3/53/31 38/40/31 78/108/31 79/109/31
f 37/39/32 80/110/32 81/111/32 77/107/32
f 17/18/33 4/4/33 82/112/33 83/113/33
f 4/4/34 3/3/34 79/114/34 82/112/34
f 80/115/35 17/18/35 83/113/35 81/116/35
f 84/117/36 85/118/37 19/20/7 18/19/6
f 86/119/38 87/120/38 88/121/39 84/117/36
f 13/14/40 16/17/40 51/122/40 34/123/40
f 54/62/41 89/124/42 90/125/43 46/50/44
f 46/50/44 90/125/43 91/126/45
f 53/61/46 92/127/46 93/128/47 54/62/41
f 78/108/48 77/107/48 73/99/48 75/104/48
f 79/109/49 78/108/49 75/104/49 70/103/49
f 77/107/50 81/111/50 65/100/50 73/99/50
f 83/113/51 82/112/51 69/95/51 66/92/51
f 82/112/52 79/114/52 70/96/52 69/95/52
f 81/116/53 83/113/53 66/92/53 65/91/53
f 68/94/54 67/93/54 94/129/54 95/130/54
f 72/98/55 71/97/55 96/131/55 97/132/55
f 67/93/56 72/98/56 97/133/56 94/134/56
f 74/102/57 68/101/57 95/135/57 98/136/57
f 71/106/58 76/105/58 99/137/58 96/138/58
f 76/105/59 74/102/59 98/139/59 99/140/59
f 95/130/60 94/129/60 100/141/60 101/142/60
f 97/132/61 96/131/61 102/143/61 103/144/61
f 94/134/62 97/133/62 103/145/62 100/146/62
f 98/136/63 95/135/63 101/147/63 104/148/63
f 96/138/64 99/137/64 105/149/64 102/150/64
f 99/140/65 98/139/65 104/151/65 105/152/65
f 101/142/66 100/141/66 63/88/66 62/87/66
f 103/144/67 102/143/67 43/84/67 64/83/67
f 100/146/68 103/145/68 64/82/68 63/81/68
f 104/148/69 101/147/69 62/78/69 40/77/69
f 102/150/70 105/149/70 39/46/70 43/45/70
f 105/152/71 104/151/71 40/42/71 39/41/71
f 106/153/9 20/21/9 24/25/9 107/154/9
f 50/55/9 108/155/9 109/156/9 21/56/9
f 22/23/72 55/63/73 45/49/74 24/25/75 23/24/76
f 110/157/77 86/119/77 84/117/77 111/158/77
f 21/22/9 109/159/9 112/160/9 22/23/9
f 49/54/78 111/158/79 113/161/80 50/55/81
f 31/33/82 8/9/82 11/12/82 32/34/82
f 32/162/82 11/67/82 58/70/82 114/163/82
f 115/164/9 49/54/9 20/57/9 106/165/9
f 24/25/75 45/49/74 116/166/83 107/154/84
f 117/167/85 118/168/85 119/169/85 120/170/85
f 55/63/16 54/62/16 46/50/16 45/49/16
f 115/164/86 121/171/87 111/158/79 49/54/78
f 112/160/88 122/172/89 55/63/73 22/23/72
f 111/158/77 84/117/77 18/19/77 113/161/77
f 50/55/81 113/161/80 123/173/90 108/155/91
f 120/174/85 119/175/85 124/176/85 125/177/85
f 33/178/12 32/162/12 114/163/12 126/179/12
f 119/175/92 26/28/92 29/31/92 124/176/92
f 91/126/93 6/7/93 9/10/93 127/180/93
f 5/181/93 25/26/93 57/69/93 10/68/93
f 109/156/94 108/155/94 117/167/94
f 51/122/95 16/17/95 17/18/95 80/115/95
f 112/160/94 125/177/94 122/172/94
f 106/153/96 107/154/96 30/32/96
f 115/164/96 126/179/96 121/171/96
f 118/168/92 56/64/92 26/66/92 119/169/92
f 56/64/97 118/168/97 128/182/97 129/183/97
f 53/61/98 52/60/98 124/176/98 29/31/98
f 86/119/99 110/157/99 114/163/99 58/70/99
f 48/52/100 47/51/100 8/9/100 31/33/100
f 129/183/101 15/16/101 14/15/101 56/64/101
f 29/31/102 28/30/102 92/127/102 53/61/102
f 58/70/103 57/69/103 87/120/103 86/119/103
f 47/51/104 127/180/104 9/10/104 8/9/104
f 118/168/105 117/167/105 123/173/105 128/182/105
f 52/60/106 122/172/106 125/177/106 124/176/106
f 126/179/107 114/163/107 110/157/107 121/171/107
f 116/166/108 48/52/108 31/33/108 30/32/108
f 113/161/77 18/19/77 129/183/77 128/182/77
f 1/1/109 16/17/109 19/20/109 85/118/109
f 36/38/110 7/8/110 90/125/110 89/124/110
f 12/13/111 19/20/111 16/17/111 13/14/111
f 89/124/112 93/128/112 35/37/112 36/38/112
f 85/118/113 88/121/113 25/26/113 1/1/113
f 7/8/114 6/7/114 91/126/114 90/125/114
f 36/38/115 51/59/115 80/110/115 37/39/115
f 14/15/4 13/14/4 34/184/4 27/65/4
f 28/30/4 35/37/4 93/128/4 92/127/4
f 57/69/93 25/26/93 88/121/93 87/120/93
f 9/10/93 6/7/93 5/185/93 10/11/93
f 117/167/94 108/155/94 123/173/94
f 117/167/94 120/186/94 109/156/94
f 125/177/94 112/160/94 109/159/94
f 109/159/94 120/187/94 125/177/94
f 126/179/96 115/164/96 106/165/96
f 106/165/96 33/188/96 126/179/96
f 30/32/96 33/189/96 106/153/96
f 30/32/96 107/154/96 116/166/96
f 12/13/8 15/16/116 129/183/116 18/19/6
f 84/117/36 88/121/39 85/118/37
f 91/126/45 127/180/117 47/51/117 46/50/44
f 54/62/41 93/128/47 89/124/42
f 116/166/83 45/49/74 48/52/118
f 55/63/73 122/172/89 52/60/118
f 123/173/90 113/161/80 128/182/119
f 111/158/79 121/171/87 110/157/119
