# File exported by Houdini 19.0.589 (www.sidefx.com)
# 45 points
# 188 vertices
# 51 primitives
# Bounds: [-1.79173684, -1.5988605, -5.17216635] to [1.74776018, 2.00824261, -1.87865782]
g 
v 0.141352773 -1.41064334 -4.32816362
v 1.3479054 -1.23762023 -4.690835
v -0.275033653 -1.41360843 -5.0614996
v -1.30270433 -1.49880767 -4.11575937
v -0.685272753 -1.5988605 -2.65261245
v 1.60116172 -1.48650503 -3.21979165
v 0.67555207 1.64175236 -3.69278479
v 0.438781112 1.48398519 -4.68797302
v -0.808651865 1.42472184 -4.68743277
v -0.716152072 1.46049261 -3.40214205
v -0.0279560853 1.30015826 -2.97320676
v 0.136342794 2.00824261 -4.05411768
v 0.353876978 -1.54268277 -2.40441346
v -0.348650575 -1.5964402 -2.29106164
v 1.19122887 -1.51459384 -2.6460433
v 1.74776018 -1.36206269 -3.8857193
v -1.26145828 -1.54883409 -3.38418603
v 0.536435902 -1.32561433 -5.14864683
v -0.788868964 -1.45620799 -4.63788986
v -0.356614411 -0.14935115 -2.75518656
v 0.623361707 -0.0931733921 -3.03877616
v 0.188164741 -0.0105282851 -2.79470062
v 0.923953593 -1.03355157 -2.10301304
v 0.29850176 -1.18572009 -1.96520269
v -0.213642925 -1.21380889 -1.87865782
v -0.285128683 -0.681580067 -1.94788504
v 0.215782657 -0.652491629 -2.06223679
v 0.717004061 -0.625402212 -2.12334657
v 1.57093549 -0.851955354 -3.02748847
v -0.715434849 -0.743050456 -2.27093339
v 1.14592433 -0.632958412 -4.69019938
v -0.075623773 -0.604142368 -5.17216635
v 0.53515029 -0.61855042 -5.13896942
v 1.1383568 0.0776236653 -3.45628834
v 1.01172876 0.202066064 -4.19181013
v -0.925590038 -0.00274007092 -2.77026582
v -1.66734087 0.0472863466 -3.75895071
v -1.05567813 -0.0370429456 -4.50006676
v -0.541842699 0.00555668958 -4.97293663
v 0.181578666 0.439921409 -4.93006992
v 0.792352736 0.425513417 -4.68908596
v -0.961938262 -1.01870751 -2.46930885
v -1.7875514 -0.725760639 -3.93735528
v -1.79173684 -0.864595473 -3.34875059
v -1.317083 0.0236636717 -3.29208994
vt 0.713837087 0.301641911 0
vt 0.691766083 0.223632812 0
vt 0.769829512 0.233849242 0
vt 0.835897148 0.294727713 0
vt 0.573920488 0.288060576 0
vt 0.634045482 0.251280755 0
vt 0.596934736 0.439203233 0
vt 0.560546875 0.35733071 0
vt 0.688269794 0.486379206 0
vt 0.619932652 0.48072964 0
vt 0.853573918 0.380089521 0
vt 0.823698223 0.439600319 0
vt 0.806982815 0.0450959504 0
vt 0.865176916 0.0590902343 0
vt 0.835935056 0.124037221 0
vt 0.913140595 0.146287918 0
vt 0.977284849 0.0995195433 0
vt 0.991750717 0.15206939 0
vt 0.998998463 0.211125016 0
vt 0.955677927 0.200646877 0
vt 0.952912211 0.177945539 0
vt 0.847730517 0.192222416 0
vt 0.814933598 0.242770568 0
vt 0.772830963 0.223282576 0
vt 0.765761495 0.167605221 0
vt 0.805351555 0.128863111 0
vt 0.840739071 0.16529569 0
vt 0.79044354 0 0
vt 0.947954595 0.0549710579 0
vt 0.896027744 0.12260443 0
vt 0.865183234 0.123937704 0
vt 0.899017453 0.0796451494 0
vt 0.918212354 0.181588843 0
vt 0.990416527 0.274264783 0
vt 0.922381461 0.285984218 0
vt 0.945878506 0.265994817 0
vt 0.854576349 0.147724047 0
vt 0.856504261 0.164759576 0
vt 0.875431061 0.153077185 0
vt 0.868736565 0.180340514 0
vt 0.853229344 0.15985553 0
vt 0.270760596 0.1711092 0
vt 0.186880946 0.205098346 0
vt 0.102314524 0.131113976 0
vt 0.263500094 0.0517609045 0
vt 0.509392679 0.40320155 0
vt 0.373026192 0.240267619 0
vt 0.389520049 0.16123943 0
vt 0.629867256 0.142531052 0
vt 0.479613215 0.0389680378 0
vt 0 0.162131488 0
vt 0.111568473 0.342030317 0
vt 0.391366541 0.446468413 0
vt 0.291962683 0.271027952 0
vt 0.259007871 0.477629513 0
vt 0.203078315 0.290183127 0
vt 0.61159426 0.0478251837 0
vt 0.886188149 0.0102875531 0
vt 0.691844463 0.0108184954 0
vt 0.891509056 0.229727894 0
vt 0.862014115 0.253202826 0
vt 0.909313917 0.202844605 0
vt 0.772000849 0.483475804 0
vn 0.122339517 -0.990327239 -0.0654598996
vn 0.101930708 -0.993332386 -0.0538596697
vn 0.107805967 -0.994171917 1.67500254e-08
vn 0.130028769 -0.990700781 -0.0400570221
vn 0.0567817055 -0.997988164 -0.0282053575
vn 0.0572425909 -0.998044908 -0.0250954945
vn 0.0826206729 -0.996580958 -1.17338652e-06
vn 0.0586154647 -0.997852087 -0.0292471126
vn 0.0477725975 -0.994956851 -0.0881965831
vn 0.0341353193 -0.994899631 -0.0949180573
vn 2.84908808e-08 -0.997670114 -0.0682226419
vn 0.0503836945 -0.996205688 -0.0709631145
vn 0.0719657689 -0.994491398 -0.0762087256
vn 0.0639844835 -0.995100737 -0.0753688216
vn 0.0672069788 -0.996171653 -0.0559045002
vn 0.0830637366 -0.994034469 -0.0706822649
vn 0.0862133875 -0.97976923 -0.180609047
vn 0.0824867338 -0.977899671 -0.192115188
vn 0.0443376079 -0.983734488 -0.174070537
vn 0.0757328346 -0.983039081 -0.167029202
vn 0.583644569 0.195789397 -0.788051784
vn 0.583644569 0.195789397 -0.788051784
vn 0.583644569 0.195789397 -0.788051784
vn -0.708583832 -0.0649806559 -0.702628255
vn -0.708583891 -0.0649806559 -0.702628314
vn -0.708583832 -0.0649806559 -0.702628255
vn -0.845940828 -0.533158302 0.0112356842
vn -0.790348947 -0.612651169 0.00266553811
vn -0.785469353 -0.601099551 -0.147367328
vn -0.853245735 -0.506192327 -0.125463396
vn 0.50780791 0.197920755 0.838426173
vn 0.50780791 0.197920755 0.838426173
vn 0.50780797 0.197920769 0.838426173
vn 0.956774592 0.264969587 -0.119889125
vn 0.956774592 0.264969587 -0.119889118
vn 0.956774652 0.264969587 -0.119889118
vn 0.914235234 0.3056705 -0.265968829
vn 0.914235175 0.305670559 -0.265969098
vn 0.914235175 0.305670619 -0.265969038
vn 0.914235115 0.30567053 -0.265969068
vn -0.41663149 -0.0216136947 -0.908818483
vn 0.0195295047 0.0659289062 -0.997633159
vn -0.0905702338 0.24607712 -0.965009391
vn -0.970971227 0.239196256 9.28927264e-08
vn -0.522286832 -0.133185327 -0.842305243
vn 7.76050058e-07 0.224870294 -0.974388719
vn -0.730146468 0.2594226 -0.632128179
vn -0.772757113 -0.0360088684 -0.633679628
vn -0.258727968 -0.401035756 0.878766239
vn -0.258727968 -0.401035786 0.878766358
vn -0.258727968 -0.401035756 0.878766298
vn 0.566574991 0.227578282 0.791960239
vn 0.546435833 0.280974239 0.788962245
vn 0.61089921 0.292022586 0.735883772
vn 0.626627862 0.258318394 0.735261202
vn 0.657958388 0.703714371 -0.268098474
vn 0.657958388 0.70371443 -0.268098503
vn 0.657958388 0.703714371 -0.268098474
vn -0.0364557616 0.761456549 -0.647190034
vn -0.0364557616 0.761456549 -0.647190034
vn -0.0364557616 0.761456549 -0.647190034
vn -0.532482862 0.846311986 0.0147681292
vn -0.532482862 0.846311986 0.0147681301
vn -0.532482862 0.846311986 0.0147681292
vn -0.134227216 0.838155508 0.528657258
vn -0.134227201 0.838155508 0.528657198
vn -0.134227201 0.838155448 0.528657198
vn 0.177101135 0.810718536 0.558005869
vn 0.17710115 0.810718596 0.558005869
vn 0.17710115 0.810718536 0.558005869
vn 0.148869231 -0.758107126 0.634910643
vn 0.150160223 -0.748789191 0.64557457
vn 0.160988495 -0.749233603 0.642441988
vn 0.160248339 -0.756010115 0.634640992
vn 0.579392731 0.728973985 0.364555955
vn 0.874871373 0.452238351 0.17343691
vn 0.71587795 0.391774386 0.57795465
vn 0.535021007 0.675683558 0.507153034
vn 0.310179472 -0.630682409 0.71135664
vn 0.311803401 -0.71771574 0.622625709
vn 0.207573429 -0.746149242 0.632593513
vn 0.226218402 -0.671194971 0.705919683
vn -0.693934977 -0.313539416 0.648187757
vn -0.658725798 -0.431718707 0.616197288
vn -0.755666614 -0.33801496 0.560993552
vn -0.744364858 -0.293699861 0.599717736
vn 0.453014761 0.67884171 0.577885389
vn 0.0395418592 0.752188683 0.657760143
vn 0.0143865757 0.865055561 0.501469791
vn 0.395725101 0.810948491 0.43100369
vn -0.167868838 0.816146135 0.552924514
vn 0.0757021531 0.835561454 0.544156551
vn 0.105571181 0.74980551 0.653181732
vn -0.141489238 0.741822124 0.655500352
vn 0.206394345 0.206080317 0.956520915
vn 0.211403668 0.153938457 0.965200245
vn 0.156884536 0.148079365 0.976452589
vn 0.152599216 0.199802294 0.967880428
vn 0.114609651 0.107313044 0.987597346
vn 0.108370431 0.194227993 0.974951923
vn 0.163850978 0.201161414 0.965757191
vn 0.18045263 0.139999449 0.973569274
vn 0.824192524 -0.127926826 0.551671386
vn 0.823316693 -0.157960296 0.545158863
vn 0.80308193 -0.190967083 0.564438522
vn 0.80935055 -0.134695143 0.571672142
vn -0.00815357082 0.634997189 0.772471428
vn -0.602310717 0.0228887796 0.7979334
vn -0.991100132 -0.133118585 -5.63936808e-08
vn -0.484944314 0.709801733 0.510891736
vn 0.0545907132 0.013764306 -0.99841392
vn -0.108208016 0.0134084048 -0.994037926
vn -0.0940861478 -0.112066306 -0.989236534
vn 0.0502115265 -0.147417173 -0.987799108
vn 0.472049773 0.158594966 -0.86718899
vn 0.490274668 0.0128190834 -0.87147373
vn 0.592251182 0.0121037625 -0.805662572
vn 0.583644509 0.19578889 -0.788051844
vn 0.862535298 0.183939964 -0.471379936
vn 0.546435714 0.280974388 0.788962126
vn 0.41865012 0.533744156 0.73474431
vn 0.24473092 0.291867495 -0.92461884
vn 0.864084959 0.332694829 -0.377718598
vn 0.864084959 0.332694829 -0.377718568
vn 0.864085019 0.332694829 -0.377718598
vn 0.0751605034 0.386241704 0.919330299
vn 0.0114528202 0.146187022 0.989190638
vn -0.474078685 0.235115662 0.848510563
vn -0.411602646 0.410327405 0.813765824
vn -0.739675701 0.353231043 0.572806776
vn -0.73967576 0.353231102 0.572806835
vn -0.739675701 0.353231043 0.572806776
vn -0.76768899 0.0478228666 -0.639035761
vn -0.610178232 0.553751111 -0.566605866
vn -0.833952904 0.55002135 0.0447103381
vn -0.982458472 0.174467951 0.0658499748
vn -0.677939653 0.020376591 -0.734835148
vn -0.677939594 0.0203765891 -0.734835088
vn -0.677939653 0.020376591 -0.734835148
vn -0.0905705318 0.246077567 -0.965009212
vn -0.054236047 0.187125683 -0.980837643
vn -0.0097107552 0.195461556 -0.980663359
vn -0.0112775937 0.228507444 -0.973476768
vn 0.36673072 0.123472169 -0.922097147
vn 0.36673072 0.123472162 -0.922097147
vn 0.36673072 0.123472176 -0.922097147
vn 0.914235175 0.305670589 -0.265969038
vn 0.914235175 0.3056705 -0.265969068
vn 0.914235234 0.30567053 -0.265968919
vn 0.914235234 0.305670619 -0.265968919
vn -0.74619323 0.21348837 0.630569994
vn -0.787921131 0.597538114 0.148756444
vn 0.127934828 0.579293549 0.805016518
vn 0.0473091379 0.282152772 0.958202243
vn -0.988696337 0.147346243 0.0277243182
vn -0.879993439 0.463659942 0.103106543
vn -0.73812294 0.357946992 0.571881473
vn -0.800168574 -0.0139512969 0.599612951
vn -0.658329368 -0.537490368 0.526978672
vn -0.674714565 -0.548475564 0.493897676
vn -0.698295057 -0.496056616 0.516054094
vn -0.67369926 -0.494728714 0.548974395
vn -0.738123298 0.35794723 0.571880877
vn -0.663428843 0.311104774 0.680496871
vn -0.687737525 0.228703558 0.688993454
vn -0.778136671 0.203828469 0.594102204
vn 0.0132806944 -0.997463524 -0.0699295476
vn 0.000158932526 -0.997651577 -0.0684928447
vn -0.00957709551 -0.99840039 -0.0557210222
vn 0.0244416147 -0.999206245 -0.0314547159
vn 0.35677734 0.294169515 -0.886664689
vn 0.0591393784 0.38270697 -0.921974957
vn 0.0580231547 0.211918712 -0.975563288
vn 0.36673069 0.123471737 -0.922097266
vn -0.633318126 -0.0440313369 -0.772638023
vn -0.673661888 -0.0550786592 -0.736984432
vn -0.671372175 -0.0802431256 -0.736763358
vn -0.63104856 -0.070429489 -0.772539675
vn 0.849258959 0.452779889 0.271568656
vn 0.907846451 0.410200208 -0.0868941098
vn 0.956774592 0.264969647 -0.119889081
vn 0.91474539 0.309863925 0.259278089
vn 0.0359170623 0.140672222 0.9894045
vn 0.035917066 0.140672237 0.989404619
vn 0.035917066 0.140672237 0.9894045
vn -0.739675283 0.353230923 0.572807491
vn -0.739675224 0.353230953 0.572807491
vn -0.739675283 0.353230953 0.572807491
g 
f 1/1/1 3/2/2 18/3/3 2/4/4
f 1/1/5 4/5/6 19/6/7 3/2/8
f 1/1/9 5/7/10 17/8/11 4/5/12
f 1/1/13 13/9/14 14/10/15 5/7/16
f 1/1/17 2/4/18 16/11/19 6/12/20
f 31/13/21 33/14/22 41/15/23
f 38/16/24 19/17/25 4/18/26
f 4/18/27 17/19/28 44/20/29 43/21/30
f 11/22/31 22/23/32 21/24/33
f 34/25/34 35/26/35 7/27/36
f 2/28/37 31/13/38 41/15/39 35/26/40
f 3/29/41 39/30/42 40/31/43 32/32/44
f 4/18/45 43/21/46 37/33/47 38/16/48
f 5/34/49 30/35/50 42/36/51
f 21/24/52 34/25/53 7/27/54 11/22/55
f 7/27/56 8/37/57 12/38/58
f 8/37/59 9/39/60 12/38/61
f 9/39/62 10/40/63 12/41/64
f 10/40/65 11/22/66 12/41/67
f 11/22/68 7/27/69 12/41/70
f 24/42/71 25/43/72 14/44/73 13/45/74
f 21/46/75 28/47/76 23/48/77 29/49/78
f 23/48/79 24/42/80 13/45/81 15/50/82
f 5/51/83 14/44/84 25/43/85 30/52/86
f 22/53/87 27/54/88 28/47/89 21/46/90
f 20/55/91 26/56/92 27/54/93 22/53/94
f 27/54/95 26/56/96 25/43/97 24/42/98
f 28/47/99 27/54/100 24/42/101 23/48/102
f 29/49/103 23/48/104 15/50/105 6/57/106
f 30/52/107 25/43/108 26/56/109 20/55/110
f 33/14/111 18/58/112 3/29/113 32/32/114
f 2/28/115 18/58/116 33/14/117 31/13/118
f 6/57/119 34/25/120 21/24/121 29/49/122
f 35/26/123 16/59/124 2/28/125
f 36/60/126 20/61/127 11/22/128 10/40/129
f 10/40/130 45/62/131 36/60/132
f 38/16/133 37/33/134 10/40/135 9/39/136
f 39/30/137 38/16/138 9/39/139
f 40/31/140 39/30/141 9/39/142 8/37/143
f 41/15/144 40/31/145 8/37/146
f 35/26/147 41/15/148 8/37/149 7/27/150
f 42/36/151 30/35/152 20/61/153 36/60/154
f 43/21/155 44/20/156 45/62/157 37/33/158
f 44/20/159 17/19/160 5/34/161 42/36/162
f 45/62/163 44/20/164 42/36/165 36/60/166
f 13/9/167 1/1/168 6/12/169 15/63/170
f 41/15/171 33/14/172 32/32/173 40/31/174
f 19/17/175 38/16/176 39/30/177 3/29/178
f 16/59/179 35/26/180 34/25/181 6/57/182
f 22/23/183 11/22/184 20/61/185
f 45/62/186 10/40/187 37/33/188
