# File exported by Houdini 19.0.589 (www.sidefx.com)
# 12 points
# 60 vertices
# 20 primitives
# Bounds: [-0.723606765, -0.525731206, -0.523772359] to [0.65174675, 0.684079289, 0.791071177]
g 
v 0.0570122786 0.177978531 -0.523772359
v 0.543655097 0.341936469 -0.337160558
v -0.110930219 0.341727316 -0.235212192
v -0.712373078 0.0762313902 -0.411358386
v -0.276393294 -0.511287928 -0.404062331
v 0.561854005 -0.405469775 -0.412315249
v 0.65174675 -0.142840624 0.450056046
v 0.321972668 0.684079289 0.414132178
v -0.558992207 0.413094401 0.395398796
v -0.723606765 -0.525731206 0.44721359
v 0.276393324 -0.331813216 0.44721359
v 0.054991588 0.0134464493 0.791071177
vt 0.81462723 0.205078125 0
vt 0.823471725 0.286481798 0
vt 0.694264412 0.218757167 0
vt 0.972982347 0.27601698 0
vt 0.635994554 0.157432437 0
vt 0.750796914 0.0309403762 0
vt 0.807081223 0.182072073 0
vt 0.567140818 0 0
vt 0.515560687 0.157388121 0
vt 0.6796875 0.40708375 0
vt 0.879117787 0.44825393 0
vt 0.96177423 0.0103250425 0
vt 0.533489645 0.17578125 0
vt 0.667605698 0.307510346 0
vt 0.489694387 0.398000747 0
vt 0.368001252 0.0148347486 0
vt 0.334153473 0.208287507 0
vt 0.999531269 0.217315495 0
vt 0.330078125 0.241126508 0
vt 0.547166288 0.470080495 0
vt 0.222050801 0.0681052059 0
vt 0.131902829 0.227967128 0
vt 0 0.064039506 0
vt 0.388508052 0.45766592 0
vn -0.0824614689 0.845399797 -0.527730465
vn -0.0824614763 0.845399797 -0.527730405
vn -0.0824614689 0.845399678 -0.527730405
vn -0.188795894 0.8028633 -0.565479159
vn -0.188795894 0.8028633 -0.565479159
vn -0.188795879 0.8028633 -0.565479159
vn -0.129663005 -0.108458579 -0.985608637
vn -0.12966302 -0.108458586 -0.985608578
vn -0.12966302 -0.108458586 -0.985608637
vn 0.0126604177 -0.177043706 -0.984121621
vn 0.0126604177 -0.177043691 -0.984121621
vn 0.0126604168 -0.177043676 -0.984121501
vn 0.325885624 0.102440089 -0.93984288
vn 0.325885594 0.102440074 -0.93984282
vn 0.325885624 0.102440082 -0.93984282
vn -0.0672390088 0.900379837 -0.429877996
vn -0.0672390088 0.900379837 -0.429877996
vn -0.0672390088 0.900379777 -0.429877967
vn -0.303615004 0.898375332 -0.317394972
vn -0.303614974 0.898375332 -0.317394972
vn -0.303615034 0.898375392 -0.317395002
vn -0.735190034 -0.550473928 -0.395568043
vn -0.735190034 -0.550473988 -0.395568073
vn -0.735189974 -0.550473928 -0.395568043
vn 0.125466228 -0.98406446 0.125997484
vn 0.125466228 -0.984064341 0.125997484
vn 0.125466242 -0.98406446 0.125997499
vn 0.99279958 0.0356726833 -0.114352323
vn 0.99279958 0.0356726833 -0.114352323
vn 0.99279958 0.0356726795 -0.114352323
vn 0.922415257 0.372315556 0.102620639
vn 0.922415376 0.372315615 0.102620654
vn 0.922415316 0.372315586 0.102620646
vn -0.274778306 0.913944423 -0.298667908
vn -0.274778306 0.913944483 -0.298667908
vn -0.274778306 0.913944483 -0.298667908
vn -0.977738857 0.177604094 0.111729011
vn -0.977738976 0.177604109 0.111729033
vn -0.977738976 0.177604109 0.111729033
vn 0.189713687 -0.978319347 0.0830663443
vn 0.189713687 -0.978319287 0.0830663443
vn 0.189713687 -0.978319407 0.0830663517
vn 0.437335372 -0.871981442 0.219968438
vn 0.437335372 -0.871981442 0.219968438
vn 0.437335432 -0.871981502 0.219968453
vn 0.528678775 0.246127173 0.812354743
vn 0.528678775 0.246127188 0.812354743
vn 0.528678715 0.246127158 0.812354624
vn -0.182381555 0.535931468 0.824326634
vn -0.182381541 0.535931408 0.824326634
vn -0.182381555 0.535931468 0.824326634
vn -0.475186914 0.131337479 0.870027423
vn -0.475187033 0.131337509 0.870027483
vn -0.475187004 0.131337494 0.870027483
vn 0.127530649 -0.657652557 0.742448092
vn 0.127530649 -0.657652557 0.742448092
vn 0.127530649 -0.657652497 0.742448092
vn 0.285335541 -0.57825458 0.764333248
vn 0.285335571 -0.57825458 0.764333248
vn 0.285335541 -0.578254521 0.764333189
g 
f 1/1/1 3/2/2 2/3/3
f 1/1/4 4/4/5 3/2/6
f 1/5/7 5/6/8 4/7/9
f 1/5/10 6/8/11 5/6/12
f 1/5/13 2/9/14 6/8/15
f 2/3/16 3/2/17 8/10/18
f 3/2/19 4/4/20 9/11/21
f 4/7/22 5/6/23 10/12/24
f 5/13/25 6/14/26 11/15/27
f 6/8/28 2/9/29 7/16/30
f 2/9/31 8/17/32 7/16/33
f 3/2/34 9/11/35 8/10/36
f 4/7/37 10/12/38 9/18/39
f 5/13/40 11/15/41 10/19/42
f 6/14/43 7/20/44 11/15/45
f 7/16/46 8/17/47 12/21/48
f 8/17/49 9/22/50 12/21/51
f 9/22/52 10/23/53 12/21/54
f 10/19/55 11/15/56 12/24/57
f 11/15/58 7/20/59 12/24/60
