# File exported by Houdini 19.0.589 (www.sidefx.com)
# 66 points
# 272 vertices
# 72 primitives
# Bounds: [-1.44441319, -1, -1.44441319] to [1.44441342, 1.44580829, 1.4444133]
g 
v 1.02135444 -1 -1.02135444
v -2.64891007e-08 -1 -1.44441319
v -1.02135444 -1 -1.02135444
v -1.44441319 -1 -1.32445503e-08
v -1.02135444 -1 1.02135444
v -2.64891007e-08 -1 1.4444133
v 1.02135444 -1 1.02135444
v 1.44441342 -1 -1.32445503e-08
v 0.898801446 -0.714285731 -0.898801446
v -1.61586584e-08 -0.714285731 -1.27109718
v -0.898801446 -0.714285731 -0.898801446
v -1.27109718 -0.714285731 -8.07933009e-09
v -0.898801446 -0.714285731 0.898801446
v -1.61586584e-08 -0.714285731 1.2710973
v 0.898801446 -0.714285731 0.898801446
v 1.2710973 -0.714285731 -8.07933009e-09
v 0.846269727 -0.428571433 -0.846269727
v -1.17305641e-08 -0.428571433 -1.19680607
v -0.846269727 -0.428571433 -0.846269727
v -1.19680607 -0.428571433 -5.86528248e-09
v -0.846269727 -0.428571433 0.846269727
v -1.17305641e-08 -0.428571433 1.19680619
v 0.846269786 -0.428571433 0.846269786
v 1.19680619 -0.428571433 -5.86528248e-09
v 0.767880559 -0.142857134 -0.767880559
v -5.1228537e-09 -0.142857134 -1.08594716
v -0.767880559 -0.142857134 -0.767880559
v -1.08594716 -0.142857134 -2.56142707e-09
v -0.767880559 -0.142857134 0.767880559
v -5.1228537e-09 -0.142857134 1.08594716
v 0.767880619 -0.142857134 0.767880619
v 1.08594728 -0.142857134 -2.56142707e-09
v 0.707106709 0.142857164 -0.707106709
v 0 0.142857164 -0.999999881
v -0.707106709 0.142857164 -0.707106709
v -0.999999881 0.142857164 0
v -0.707106709 0.142857164 0.707106709
v 0 0.142857164 0.99999994
v 0.707106769 0.142857164 0.707106769
v 1 0.142857164 0
v 0.612462521 0.428571463 -0.612462521
v 7.97791166e-09 0.428571463 -0.866152763
v -0.612462461 0.428571463 -0.612462521
v -0.866152763 0.428571463 3.98895583e-09
v -0.612462461 0.428571463 0.612462521
v 7.97791166e-09 0.428571463 0.866152763
v 0.612462521 0.428571463 0.612462521
v 0.866152883 0.428571463 3.98895583e-09
v 0.543897033 0.714285731 -0.543897033
v 1.37575515e-08 0.714285731 -0.769186437
v -0.543896973 0.714285731 -0.543897033
v -0.769186437 0.714285731 6.87877755e-09
v -0.543896973 0.714285731 0.543897033
v 1.37575515e-08 0.714285731 0.769186497
v 0.543897033 0.714285731 0.543897033
v 0.769186556 0.714285731 6.87877755e-09
v 0.449828237 0.79600209 -0.449828207
v 2.16869669e-08 1 -0.636152983
v -0.449828207 1.44580829 -0.449828207
v -0.636152983 1.44580829 4.56480231e-09
v -0.449828207 1 0.449828237
v 2.16869669e-08 1 0.636152983
v 0.449828267 1 0.449828267
v 0.636153102 0.79600209 4.56480231e-09
v 0 -1 0
v 0 1.24181044 3.91492037e-16
vt 0.489393413 0 0
vt 0.643812776 0.0203731321 0
vt 0.631028771 0.0665853471 0
vt 0.489978582 0.0478101559 0
vt 0.787005723 0.0822879076 0
vt 0.762213528 0.123416275 0
vt 0.908560276 0.17993927 0
vt 0.873683155 0.212690011 0
vt 0.997932434 0.306945473 0
vt 0.954934835 0.325799614 0
vt 0 0.329901457 0
vt 0.0798377991 0.196127668 0
vt 0.116828866 0.226433694 0
vt 0.0444374979 0.345520586 0
vt 0.195389137 0.0914571062 0
vt 0.222082302 0.131164908 0
vt 0.335746497 0.0241663791 0
vt 0.349941581 0.0697834939 0
vt 0.619570553 0.107706673 0
vt 0.490436733 0.0901909545 0
vt 0.740061224 0.160180837 0
vt 0.842813671 0.242199317 0
vt 0.919326961 0.346734762 0
vt 0.149472654 0.253530979 0
vt 0.0817029923 0.363713473 0
vt 0.24576956 0.166355729 0
vt 0.36251986 0.110157095 0
vt 0.607698441 0.149875641 0
vt 0.490817994 0.133496046 0
vt 0.717218757 0.198064029 0
vt 0.811145484 0.2727319 0
vt 0.881636262 0.367107749 0
vt 0.182876602 0.281316936 0
vt 0.121119484 0.381061792 0
vt 0.270034969 0.202327296 0
vt 0.37537235 0.151354089 0
vt 0.596042037 0.190462202 0
vt 0.491022885 0.174954176 0
vt 0.694993675 0.234820634 0
vt 0.780590177 0.302584678 0
vt 0.845837295 0.388311177 0
vt 0.215009779 0.308084309 0
vt 0.15895611 0.399153411 0
vt 0.293415934 0.236822143 0
vt 0.387688577 0.190716296 0
vt 0.583358824 0.233335853 0
vt 0.49098599 0.218452424 0
vt 0.671104789 0.274095356 0
vt 0.748074532 0.334651798 0
vt 0.807082713 0.40895164 0
vt 0.249046966 0.336226314 0
vt 0.200108767 0.415970176 0
vt 0.318247795 0.273153991 0
vt 0.400653303 0.23190698 0
vt 0.570520997 0.274314702 0
vt 0.490466833 0.259539425 0
vt 0.647408128 0.31254977 0
vt 0.716593385 0.366614193 0
vt 0.771790683 0.431061506 0
vt 0.281657875 0.363193154 0
vt 0.238815472 0.433659524 0
vt 0.342409641 0.307902187 0
vt 0.413025767 0.270588756 0
vt 0.554342628 0.316129744 0
vt 0.488939077 0.280919582 0
vt 0.588827908 0.403325379 0
vt 0.643387139 0.445599258 0
vt 0.735416412 0.454314619 0
vt 0.315808982 0.391309768 0
vt 0.280188799 0.450251907 0
vt 0.367083222 0.344965905 0
vt 0.419584632 0.290699542 0
vt 0.536030173 0.37890625 0
vt 0.647226691 0.490102679 0
vt 0.457402408 0.568730474 0
vt 0.378774583 0.37890625 0
vt 0.267578125 0.490102708 0
vt 0.267578155 0.647358298 0
vt 0.378774643 0.758554816 0
vt 0.536030173 0.758554757 0
vt 0.647226691 0.647358239 0
vt 0.998598993 0.520882308 0
vt 0.944285214 0.572158933 0
vt 0.891948581 0.490234971 0
vt 0.851022959 0.57643944 0
vt 0.803710938 0.526567519 0
vt 0.812894404 0.433662713 0
vt 0.870108008 0.395507812 0
vt 0.938254118 0.404756844 0
vt 0.996117055 0.451992273 0
vn 0.333832145 0.488889694 -0.805942297
vn 0.333832175 0.488889486 -0.805942476
vn 0.333832234 0.488889486 -0.805942297
vn 0.333832204 0.488889754 -0.805942297
vn -0.333832175 0.488889486 -0.805942476
vn -0.333832145 0.488889694 -0.805942297
vn -0.333832204 0.488889754 -0.805942297
vn -0.333832234 0.488889486 -0.805942297
vn -0.805942297 0.488889694 -0.333832145
vn -0.805942476 0.488889486 -0.333832175
vn -0.805942297 0.488889486 -0.333832234
vn -0.805942297 0.488889754 -0.333832204
vn -0.805942476 0.488889486 0.333832175
vn -0.805942297 0.488889694 0.333832145
vn -0.805942297 0.488889754 0.333832204
vn -0.805942297 0.488889486 0.333832234
vn -0.333832204 0.488889694 0.805942297
vn -0.333832234 0.488889456 0.805942416
vn -0.333832324 0.488889486 0.805942297
vn -0.333832264 0.488889694 0.805942118
vn 0.333832234 0.488889456 0.805942416
vn 0.333832204 0.488889694 0.805942297
vn 0.333832264 0.488889694 0.805942118
vn 0.333832383 0.488889515 0.805942357
vn 0.805942237 0.488889664 0.333832264
vn 0.805942237 0.488889754 0.333832294
vn 0.805942178 0.488889754 0.333832294
vn 0.805942118 0.488889694 0.333832264
vn 0.805942237 0.488889754 -0.333832294
vn 0.805942237 0.488889664 -0.333832264
vn 0.805942118 0.488889694 -0.333832264
vn 0.805942178 0.488889754 -0.333832294
vn 0.372097492 0.233580753 -0.898322701
vn 0.372097433 0.233580858 -0.898322642
vn 0.372097343 0.233580843 -0.898322642
vn 0.372097313 0.233580679 -0.898322582
vn -0.372097433 0.233580858 -0.898322642
vn -0.372097492 0.233580753 -0.898322701
vn -0.372097313 0.233580679 -0.898322582
vn -0.372097313 0.233580813 -0.898322582
vn -0.898322642 0.233580738 -0.372097433
vn -0.898322642 0.233580858 -0.372097433
vn -0.898322582 0.233580813 -0.372097313
vn -0.898322582 0.233580679 -0.372097313
vn -0.898322642 0.233580858 0.372097433
vn -0.898322642 0.233580738 0.372097433
vn -0.898322582 0.233580679 0.372097313
vn -0.898322582 0.233580813 0.372097313
vn -0.372097522 0.233580738 0.898322642
vn -0.372097522 0.233580858 0.898322642
vn -0.372097492 0.233580843 0.898322642
vn -0.372097462 0.233580709 0.898322582
vn 0.372097522 0.233580858 0.898322642
vn 0.372097582 0.23358047 0.898322642
vn 0.372097403 0.23358047 0.898322642
vn 0.372097403 0.233580843 0.898322582
vn 0.898322642 0.23358047 0.372097582
vn 0.898322642 0.233580858 0.372097522
vn 0.898322582 0.233580813 0.372097343
vn 0.898322642 0.23358047 0.372097403
vn 0.898322642 0.233580858 -0.372097522
vn 0.898322642 0.233580738 -0.372097522
vn 0.898322582 0.233580709 -0.372097462
vn 0.898322642 0.233580843 -0.372097492
vn 0.360237092 0.337445229 -0.869689524
vn 0.360237181 0.337444961 -0.869689584
vn 0.3602373 0.337444961 -0.869689643
vn 0.360237211 0.33744517 -0.869689465
vn -0.360237151 0.337444931 -0.869689584
vn -0.360237092 0.337445229 -0.869689524
vn -0.360237211 0.33744517 -0.869689465
vn -0.3602373 0.337444961 -0.869689643
vn -0.869689524 0.337445229 -0.360237092
vn -0.869689584 0.337444931 -0.360237151
vn -0.869689524 0.337444931 -0.360237271
vn -0.869689465 0.33744517 -0.360237211
vn -0.869689584 0.337444961 0.360237181
vn -0.869689524 0.337445229 0.360237092
vn -0.869689465 0.33744517 0.360237211
vn -0.869689524 0.337444931 0.360237271
vn -0.360237211 0.337445229 0.869689405
vn -0.360237211 0.337445229 0.869689405
vn -0.360237271 0.337445259 0.869689465
vn -0.360237211 0.33744517 0.869689465
vn 0.360237122 0.337445259 0.869689524
vn 0.360237122 0.337445229 0.869689524
vn 0.360237151 0.337445259 0.869689524
vn 0.360237151 0.337445289 0.869689524
vn 0.869689524 0.337445229 0.360237122
vn 0.869689584 0.337444931 0.360237151
vn 0.869689643 0.337444961 0.36023736
vn 0.869689465 0.337445259 0.360237271
vn 0.869689524 0.337444931 -0.360237241
vn 0.869689405 0.337445229 -0.360237211
vn 0.869689465 0.337445259 -0.36023736
vn 0.869689524 0.337444931 -0.36023739
vn 0.368709117 0.267768383 -0.890142441
vn 0.368709147 0.267768592 -0.890142441
vn 0.368709058 0.267768592 -0.890142441
vn 0.368709087 0.267768413 -0.8901425
vn -0.368709147 0.267768592 -0.890142441
vn -0.368709117 0.267768383 -0.890142441
vn -0.368709087 0.267768413 -0.8901425
vn -0.368709058 0.267768592 -0.890142441
vn -0.890142441 0.267768383 -0.368709117
vn -0.890142441 0.267768592 -0.368709147
vn -0.890142441 0.267768592 -0.368709058
vn -0.8901425 0.267768413 -0.368709087
vn -0.890142441 0.267768592 0.368709147
vn -0.890142441 0.267768383 0.368709117
vn -0.8901425 0.267768413 0.368709087
vn -0.890142441 0.267768592 0.368709058
vn -0.368709117 0.267768383 0.890142441
vn -0.368709147 0.267768413 0.890142441
vn -0.368709117 0.267768443 0.8901425
vn -0.368709117 0.267768413 0.8901425
vn 0.368709028 0.267768413 0.8901425
vn 0.368709028 0.267768383 0.8901425
vn 0.368709058 0.267768383 0.890142441
vn 0.368709058 0.267768443 0.890142441
vn 0.890142441 0.267768383 0.368709147
vn 0.890142441 0.267768592 0.368709147
vn 0.890142441 0.267768592 0.368709087
vn 0.890142441 0.267768413 0.368709087
vn 0.890142441 0.267768592 -0.368709266
vn 0.890142441 0.267768413 -0.368709236
vn 0.890142381 0.267768413 -0.368709207
vn 0.890142441 0.267768592 -0.368709236
vn 0.351200968 0.397199243 -0.847874224
vn 0.351200968 0.397199333 -0.847874224
vn 0.351200968 0.397199303 -0.847874284
vn 0.351200968 0.397199214 -0.847874284
vn -0.351200968 0.397199303 -0.847874224
vn -0.351200938 0.397199273 -0.847874224
vn -0.351200968 0.397199333 -0.847874165
vn -0.351200968 0.397199273 -0.847874165
vn -0.847874165 0.397199363 -0.351200938
vn -0.847874224 0.397199333 -0.351200968
vn -0.847874105 0.397199243 -0.351200968
vn -0.847874105 0.397199392 -0.351200968
vn -0.847874224 0.397199333 0.351200968
vn -0.847874165 0.397199363 0.351200938
vn -0.847874105 0.397199392 0.351200968
vn -0.847874165 0.397199273 0.351200998
vn -0.351200998 0.397199303 0.847874105
vn -0.351200998 0.397199392 0.847874105
vn -0.351200938 0.397199392 0.847874105
vn -0.351200968 0.397199333 0.847874165
vn 0.351200908 0.397199452 0.847874105
vn 0.351200908 0.397199452 0.847874105
vn 0.351200879 0.397199392 0.847874105
vn 0.351200879 0.397199392 0.847874105
vn 0.847874105 0.397199452 0.351200968
vn 0.847874224 0.397199333 0.351200998
vn 0.847874105 0.397199243 0.351201028
vn 0.847874105 0.397199452 0.351201028
vn 0.847874105 0.397199273 -0.351201087
vn 0.847874165 0.397199243 -0.351201117
vn 0.847874224 0.397199273 -0.351201117
vn 0.847874105 0.397199243 -0.351201028
vn 0.365154535 0.299185872 -0.88156116
vn 0.365154475 0.29918611 -0.8815611
vn 0.365154386 0.29918614 -0.88156116
vn 0.365154386 0.299185842 -0.88156122
vn -0.365154535 0.29918611 -0.8815611
vn -0.365154535 0.299185842 -0.8815611
vn -0.365154415 0.299185842 -0.88156116
vn -0.365154386 0.29918611 -0.88156116
vn -0.8815611 0.299185872 -0.365154564
vn -0.8815611 0.29918611 -0.365154564
vn -0.8815611 0.29918611 -0.365154415
vn -0.88156116 0.299185842 -0.365154445
vn -0.8815611 0.29918611 0.365154564
vn -0.8815611 0.299185872 0.365154564
vn -0.88156116 0.299185842 0.365154445
vn -0.8815611 0.29918611 0.365154415
vn -0.365154535 0.299185842 0.8815611
vn -0.365154535 0.299185902 0.8815611
vn -0.365154475 0.299185932 0.88156116
vn -0.365154475 0.299185812 0.88156116
vn 0.365154505 0.299185932 0.8815611
vn 0.365154535 0.299185872 0.88156116
vn 0.365154445 0.299185842 0.88156116
vn 0.365154445 0.299185932 0.88156116
vn 0.8815611 0.299185872 0.365154684
vn 0.881560981 0.299186051 0.365154624
vn 0.881560981 0.299186051 0.365154475
vn 0.88156116 0.299185842 0.365154594
vn 0.881560981 0.299186051 -0.365154624
vn 0.8815611 0.299185872 -0.365154684
vn 0.88156116 0.299185842 -0.365154594
vn 0.8815611 0.29918611 -0.365154564
vn 0.211876661 0.832742393 -0.511515737
vn 0.351537079 0.395162761 -0.848686099
vn 0.493185192 0.367198527 -0.788627684
vn 0.483140141 0.84008795 -0.246633336
vn -0.351537108 0.395162791 -0.848686099
vn -0.377393663 0.165692687 -0.911109209
vn -0.243546605 0.154448062 -0.957512915
vn 0.0427887328 0.421717376 -0.905717194
vn -0.911109149 0.165692613 -0.377393693
vn -0.911109149 0.165692762 -0.377393693
vn -0.911109209 0.165692776 -0.377393454
vn -0.911109209 0.165692613 -0.377393454
vn -0.911109149 0.165692762 0.377393693
vn -0.848686159 0.395162404 0.351537198
vn -0.610183358 0.421717137 0.670694411
vn -0.849277556 0.154448166 0.504849851
vn -0.351537228 0.395162463 0.848686159
vn -0.351537168 0.39516288 0.84868598
vn -0.35153687 0.39516291 0.848686099
vn -0.351536989 0.395162433 0.848686278
vn 0.351537108 0.39516291 0.84868598
vn 0.351537198 0.395162374 0.848686159
vn 0.351536959 0.395162344 0.848686337
vn 0.35153684 0.39516294 0.848686159
vn 0.848686099 0.395162374 0.351537287
vn 0.511515617 0.832742512 0.21187669
vn 0.51602757 0.84008795 -0.167235911
vn 0.906378806 0.367198199 0.208909124
vn 0.511515617 0.832742512 -0.211876661
vn 0.511515737 0.832742333 -0.21187675
vn 0.511515856 0.832742333 -0.211876705
vn 0.511515558 0.832742572 -0.211876601
vn 0 -1 0
vn 0 -1 0
vn 0 -1 0
vn 0 -1 0
vn 0 -1 0
vn 0 -1 0
vn 0 -1 0
vn 0 -1 0
vn 0 -1 0
vn 0 -1 0
vn 0 -1 0
vn 0 -1 0
vn 0 -1 0
vn 0 -1 0
vn 0 -1 0
vn 0 -1 0
vn 0 -1 0
vn 0 -1 0
vn 0 -1 0
vn 0 -1 0
vn 0 -1 0
vn 0 -1 0
vn 0 -1 0
vn 0 -1 0
vn 0.495913595 0.811709106 -0.308541685
vn 0.495913565 0.811709106 -0.308541685
vn 0.495913625 0.811709106 -0.308541715
vn 0.614649475 0.7373299 -0.280269176
vn 0.614649415 0.737329781 -0.280269146
vn 0.614649355 0.737329841 -0.280269116
vn 0.302944392 0.94471091 0.125483558
vn 0.302944392 0.94471091 0.125483558
vn 0.302944392 0.944710851 0.125483558
vn 0.23644267 0.7373299 0.632802963
vn 0.23644267 0.7373299 0.632802963
vn 0.23644264 0.737329841 0.632802904
vn -0.145605803 0.924786329 0.351523966
vn -0.145605803 0.924786389 0.351523966
vn -0.145605803 0.924786329 0.351523966
vn 0.145605773 0.924786329 0.351523936
vn 0.145605773 0.924786389 0.351523906
vn 0.145605773 0.924786329 0.351523906
vn 0.568835795 0.811709046 -0.13249214
vn 0.568835855 0.811709106 -0.132492155
vn 0.568835795 0.811708987 -0.13249214
vn 0.558336675 0.796727121 -0.231270522
vn 0.558336616 0.796727121 -0.231270522
vn 0.558336675 0.79672718 -0.231270537
g 
f 1/1/1 2/2/2 10/3/3 9/4/4
f 2/2/5 3/5/6 11/6/7 10/3/8
f 3/5/9 4/7/10 12/8/11 11/6/12
f 4/7/13 5/9/14 13/10/15 12/8/16
f 5/11/17 6/12/18 14/13/19 13/14/20
f 6/12/21 7/15/22 15/16/23 14/13/24
f 7/15/25 8/17/26 16/18/27 15/16/28
f 8/17/29 1/1/30 9/4/31 16/18/32
f 9/4/33 10/3/34 18/19/35 17/20/36
f 10/3/37 11/6/38 19/21/39 18/19/40
f 11/6/41 12/8/42 20/22/43 19/21/44
f 12/8/45 13/10/46 21/23/47 20/22/48
f 13/14/49 14/13/50 22/24/51 21/25/52
f 14/13/53 15/16/54 23/26/55 22/24/56
f 15/16/57 16/18/58 24/27/59 23/26/60
f 16/18/61 9/4/62 17/20/63 24/27/64
f 17/20/65 18/19/66 26/28/67 25/29/68
f 18/19/69 19/21/70 27/30/71 26/28/72
f 19/21/73 20/22/74 28/31/75 27/30/76
f 20/22/77 21/23/78 29/32/79 28/31/80
f 21/25/81 22/24/82 30/33/83 29/34/84
f 22/24/85 23/26/86 31/35/87 30/33/88
f 23/26/89 24/27/90 32/36/91 31/35/92
f 24/27/93 17/20/94 25/29/95 32/36/96
f 25/29/97 26/28/98 34/37/99 33/38/100
f 26/28/101 27/30/102 35/39/103 34/37/104
f 27/30/105 28/31/106 36/40/107 35/39/108
f 28/31/109 29/32/110 37/41/111 36/40/112
f 29/34/113 30/33/114 38/42/115 37/43/116
f 30/33/117 31/35/118 39/44/119 38/42/120
f 31/35/121 32/36/122 40/45/123 39/44/124
f 32/36/125 25/29/126 33/38/127 40/45/128
f 33/38/129 34/37/130 42/46/131 41/47/132
f 34/37/133 35/39/134 43/48/135 42/46/136
f 35/39/137 36/40/138 44/49/139 43/48/140
f 36/40/141 37/41/142 45/50/143 44/49/144
f 37/43/145 38/42/146 46/51/147 45/52/148
f 38/42/149 39/44/150 47/53/151 46/51/152
f 39/44/153 40/45/154 48/54/155 47/53/156
f 40/45/157 33/38/158 41/47/159 48/54/160
f 41/47/161 42/46/162 50/55/163 49/56/164
f 42/46/165 43/48/166 51/57/167 50/55/168
f 43/48/169 44/49/170 52/58/171 51/57/172
f 44/49/173 45/50/174 53/59/175 52/58/176
f 45/52/177 46/51/178 54/60/179 53/61/180
f 46/51/181 47/53/182 55/62/183 54/60/184
f 47/53/185 48/54/186 56/63/187 55/62/188
f 48/54/189 41/47/190 49/56/191 56/63/192
f 49/56/193 50/55/194 58/64/195 57/65/196
f 50/55/197 51/57/198 59/66/199 58/64/200
f 51/57/201 52/58/202 60/67/203 59/66/204
f 52/58/205 53/59/206 61/68/207 60/67/208
f 53/61/209 54/60/210 62/69/211 61/70/212
f 54/60/213 55/62/214 63/71/215 62/69/216
f 55/62/217 56/63/218 64/72/219 63/71/220
f 56/63/221 49/56/222 57/65/223 64/72/224
f 2/73/225 1/74/226 65/75/227
f 3/76/228 2/73/229 65/75/230
f 4/77/231 3/76/232 65/75/233
f 5/78/234 4/77/235 65/75/236
f 6/79/237 5/78/238 65/75/239
f 7/80/240 6/79/241 65/75/242
f 8/81/243 7/80/244 65/75/245
f 1/74/246 8/81/247 65/75/248
f 57/82/249 58/83/250 66/84/251
f 58/83/252 59/85/253 66/84/254
f 59/85/255 60/86/256 66/84/257
f 60/86/258 61/87/259 66/84/260
f 61/87/261 62/88/262 66/84/263
f 62/88/264 63/89/265 66/84/266
f 63/89/267 64/90/268 66/84/269
f 64/90/270 57/82/271 66/84/272
