# Blender v3.0.0 OBJ File: ''
# www.blender.org
mtllib needforwheelparasol.mtl
o needforwheelparasol
v 0.037953 3.889271 -0.037953
v -0.037953 3.889271 -0.037953
v -0.037953 3.889271 0.037953
v 0.037953 3.889271 0.037953
v 0.037953 -0.195384 0.037953
v -0.037953 -0.195384 0.037953
v -0.037953 -0.195385 -0.037953
v 0.037953 -0.195385 -0.037953
v -1.330208 2.957377 1.330208
v 0.223128 2.957377 1.898326
v 0.051306 3.794571 0.436500
v -0.315296 3.786865 0.315296
v -0.000000 3.942962 -0.000000
v 0.280794 3.815062 0.280794
v 1.330208 2.957377 1.330208
v 1.882822 2.957377 0.328550
v 0.368638 3.831697 0.064327
v 1.330208 2.957376 -1.330208
v 0.273530 3.820999 -0.273530
v -0.202324 2.957376 -1.898326
v -0.041223 3.823049 -0.386773
v -1.330208 2.957376 -1.330208
v -0.246933 3.842738 -0.246933
v -1.882822 2.957376 -0.269686
v -0.387284 3.820930 -0.055473
vt 0.917736 0.981224
vt 0.917432 0.964798
vt 0.917734 0.948372
vt 0.934162 0.964797
vt 0.017400 0.931641
vt 0.917736 0.931641
vt 0.017404 0.948372
vt 0.017707 0.964798
vt 0.017406 0.981224
vt 0.000977 0.964799
vt 0.917739 0.997955
vt 0.017404 0.997955
vt 0.502585 0.001315
vt 0.827656 0.162540
vt 0.545391 0.404060
vt 0.470939 0.363622
vt 0.465518 0.467124
vt 0.556989 0.463954
vt 0.933005 0.458920
vt 0.875959 0.703324
vt 0.538527 0.511903
vt 0.858959 0.730594
vt 0.531323 0.930043
vt 0.475076 0.555592
vt 0.357329 0.922015
vt 0.063546 0.716428
vt 0.388055 0.511544
vt 0.447697 0.554304
vt 0.049907 0.693037
vt 0.000000 0.420511
vt 0.386481 0.456826
vt 0.003554 0.393162
vt 0.112396 0.154450
vt 0.399437 0.406156
vt 0.131518 0.134186
vt 0.477767 0.000000
vt 0.842806 0.181462
vt 0.932235 0.439388
vn 0.0000 1.0000 0.0000
vn 0.0000 0.0000 1.0000
vn -1.0000 0.0000 0.0000
vn 0.0000 -1.0000 0.0000
vn 1.0000 0.0000 0.0000
vn 0.0000 0.0000 -1.0000
vn -0.1846 0.8433 0.5047
vn 0.1236 0.9439 0.3063
vn 0.4513 0.8569 0.2490
vn 0.5149 0.8399 -0.1715
vn 0.1865 0.8438 -0.5031
vn -0.2339 0.8542 -0.4643
vn -0.4595 0.8553 -0.2395
vn -0.5110 0.8412 0.1765
vn 0.1160 0.9451 -0.3054
vn 0.2369 0.8548 0.4617
vn -0.1023 0.9532 -0.2846
vn 0.2560 0.9504 0.1769
vn -0.2858 0.9530 -0.1010
vn 0.3055 0.9451 -0.1159
vn -0.1297 0.9341 0.3328
vn -0.3164 0.9371 0.1475
usemtl Material.001
s 1
f 1/1/1 2/2/1 3/3/1 4/4/1
f 5/5/2 4/6/2 3/3/2 6/7/2
f 6/7/3 3/3/3 2/2/3 7/8/3
f 7/8/4 8/9/4 5/10/4 6/7/4
f 8/9/5 1/1/5 4/11/5 5/12/5
f 7/8/6 2/2/6 1/1/6 8/9/6
f 9/13/7 10/14/7 11/15/7 12/16/7
f 13/17/8 11/15/8 14/18/8
f 15/19/9 16/20/9 17/21/9 14/18/9
f 16/22/10 18/23/10 19/24/10 17/21/10
f 18/25/11 20/26/11 21/27/11 19/28/11
f 20/29/12 22/30/12 23/31/12 21/27/12
f 22/32/13 24/33/13 25/34/13 23/31/13
f 24/35/14 9/36/14 12/16/14 25/34/14
f 19/28/15 21/27/15 13/17/15
f 14/18/16 11/15/16 10/37/16 15/38/16
f 21/27/17 23/31/17 13/17/17
f 14/18/18 17/21/18 13/17/18
f 23/31/19 25/34/19 13/17/19
f 17/21/20 19/24/20 13/17/20
f 12/16/21 11/15/21 13/17/21
f 25/34/22 12/16/22 13/17/22
